<svg xmlns="http://www.w3.org/2000/svg" xml:space="preserve" width="530" height="530" viewBox="0 0 397.5 397.5"><ellipse cx="237.483" cy="139.102" rx="53.695" ry="67.749" style="fill:#fff;fill-opacity:1;stroke-width:.75"/><path d="m141.923 397.692 4.23-26.154 39.616 8.846-5 17.693zM188.077 381.154l4.23 16.923 37.693-.385L226.923 370z" style="fill:#93b0cc;fill-opacity:1;stroke-width:.75"/><path d="M230 39.2c-25.1 3.6-44.2 19.2-50.5 41.2-1.9 6.3-2.4 24.6-1.1 32.3l.8 4.3-5.5 2.4c-4.6 2-5.7 3-6.7 6.1-4 12.2 3.8 30.8 14.5 34.6 1.9.7 3.5 1.5 3.5 1.9 0 1.8 4 20 4.9 22.3.8 2.1.8 2.7-.2 2.7-.7 0-3 .9-5.1 2-3.2 1.6-4.6 1.8-8 1-9.4-2.2-16.4-.5-22.2 5.4-5.9 5.9-6.8 9.9-6 28 .6 13.9.4 15.3-1.9 23-1.3 4.4-2.9 10.3-3.5 13.1-.5 2.7-1.2 6-1.5 7.1-.4 1.7-1.9 2.5-6.9 3.8-3.6.9-7.9 1.6-9.6 1.6-1.6 0-3.9.9-4.9 1.9-1.1 1.1-3.2 2.1-4.8 2.3-1.7.2-3.2 1.1-3.8 2.5-.8 2-3.2 3.3-6.2 3.3-1.8 0-7.2-11.3-8-16.6-.7-5.3-2.4-7.4-5.3-6.7-3.9 1-5.2 4.5-4.5 11.8.4 3.6.4 6.5-.1 6.5-.4 0-2.2-.5-3.9-1.1-3.9-1.5-11.6-.4-14.5 1.9-1.9 1.5-2.2 3.1-2.7 12.1-.5 10.1-.4 10.9 3 18 2 4.1 7.2 6.1 16.2 6.1 4.5 0 10.7-.7 13.9-1.5 5.6-1.5 5.8-1.5 7.5.7 1.8 2.1 1.9 2.1 7.3.6 4.6-1.3 5.7-1.3 7.3-.2 2.4 1.8 5.5 1.8 8.2-.1 1.3-.9 3.2-1.3 5.1-.9l3 .6-.5 8.7c-.3 4.7-.8 12.4-1.1 17.1-.4 4.7-.5 13.2-.2 19l.5 10.5 3.8 2.4 3.8 2.5-.6 8.1c-.3 4.4-.8 9.9-1.1 12.2-.5 3.8-.3 4.3 1.4 4.3 2.2 0 3.2-2.5 3.2-8.5 0-2.2.3-6.3.6-9.2l.7-5.1 4.1 1.5c2.2.8 6.4 1.3 9.1 1.1 2.8-.1 5.5.1 6.1.5.7.4 4.2 1.1 7.9 1.6 3.7.6 6.9 1.1 7.1 1.3s-.3 3.5-1.1 7.3c-1.9 8.9-1.9 9.5.3 9.5 1.4 0 2.1-1.3 3-5.1.7-2.8 1.2-6 1.2-7.1 0-3.8 1.2-1 2.4 5.4.9 5.4 1.4 6.3 3.4 6.6 1.9.3 2.2 0 1.7-2-3.7-16.3-3.9-15.5 4.3-16.3 3.7-.4 11.3-1.7 17-3.1 5.7-1.3 10.5-2.4 10.7-2.4s.6 2.7.9 6 .9 8.7 1.2 12c.5 5 .9 6 2.5 6 2.2 0 2.2.2.9-13.5-1-11.3-.5-12.8 4.5-14.9 4.9-2.1 6.9-5.6 6-10.7-.8-4.8 2-14.9 4.2-14.9.8 0 2.5.7 3.9 1.6 1.8 1.3 3 1.4 4.7.7 1.6-.7 2.8-.6 4.4.5 2 1.3 3 1.2 8.5-.2 3.5-.9 15-2.2 25.6-3 18.4-1.3 19.5-1.5 24-4.3 6.3-3.9 9.6-9.9 9.7-17.4 0-5.4-1-7.6-16.3-38-8.9-17.8-18-34.8-20.2-37.7s-4-5.9-4-6.8c0-2.3-2.5-6.6-5.5-9.4-1.5-1.4-4.1-4.5-5.8-7-1.6-2.5-4.3-5.9-5.9-7.6l-2.9-3.1 9.4-9.5c11.3-11.4 14-16.4 16.8-31.5 2-10.4 2.3-11.2 4.8-12.1 12.8-4.5 20.6-29.6 12-38.8-1.2-1.3-3.2-2.4-4.3-2.4-1.2 0-2.9-.6-3.8-1.4-1.5-1.1-1.7-2.7-1.2-13.2 1.1-21.3-3.5-34.6-16-46.9C270 43.1 249.2 36.4 230 39.2m43.8 16.9c2.3 1.8 8.2 8 8.2 8.7 0 1.3 3.5 4.2 5 4.2 2.5 0 6.7 9.9 8.1 19 1.2 7.8.5 25.8-1 27.3-1.3 1.3-15.8-3.1-20.4-6.1-6.6-4.4-22.1-3.8-25.1 1-1.7 2.7-.4 2.8 6.4.7 6.6-2.1 14-2.1 17.7 0 1.3.7.1.9-4.4 1-7.5 0-13.4 1.5-18.9 4.7-5.9 3.5-15.3 3.4-22.3-.2-3-1.6-8.3-3.1-13.3-3.8-5.3-.8-7.6-1.5-6.5-1.9 3.1-1.2 11.1-.8 16.3.8 6.1 1.8 6.4 1.8 6.4-.1s-5.1-4.1-11.6-4.9c-5.4-.8-9.9.6-16.4 4.9-3.9 2.6-17.5 6.4-18.7 5.2-1.3-1.2-1.6-27-.4-32.4 1.9-8.9 7.1-18 7.1-12.5 0 1.5.2 1.5 1.9-.1 1.1-1 1.7-2.4 1.4-3.1-.2-.8.5-2 1.6-2.7 1.2-.7 2.1-2 2.1-2.8 0-1.6 7.7-7.3 12.3-9 4.1-1.5 7.4-1.2 14.5 1 8 2.5 19.3 2.6 25.9.3 9.7-3.4 19-3.1 24.1.8m7.3 62.9c8.6 4 5.1 23.2-5.1 28.5-7.8 4.1-19.8.3-23.8-7.5-2.5-5-1.8-5.9 2.7-3.6 6.3 3.3 16.7 1 22-4.8l2.5-2.6-3-3.1c-7.1-7.5-16.5-8-23.6-1.1-1.9 1.8-2.8 2.1-2.8 1.1 0-2.9 3.2-5.9 7.8-7.4 5.5-1.7 19.3-1.5 23.3.5m-61.5.1c2.6.7 5.3 2.2 6.4 3.7 3 3.7 2.4 4.7-1 1.8-7-5.9-15.6-5.3-22.4 1.6l-4 3.9 3 2.6c7.1 6.1 13.9 7.5 20.9 4.4 2.7-1.2 5-1.9 5.2-1.7 1 1-2.7 7.4-6 10.3-4 3.5-8.8 4.8-14.8 4-5.4-.7-8.3-2.8-11.6-8.4-2.3-4-2.8-6-2.8-11.5 0-3.7.5-7.2 1.1-7.8 3.6-3.6 17.1-5.1 26-2.9m54.8 7.9c2 1.9 2 2 0 4.1-5.2 5.8-15.9 6.4-24.3 1.2-.7-.4 4.1-6.3 5.9-7.3 1.7-.9 1.7-.7.7 1.9-1.5 4.1 1.1 8.1 5.5 8.1 6.4 0 8.9-6.1 4.6-10.8l-2.3-2.4 4 1.6c2.2.9 4.9 2.6 5.9 3.6m32.7-3.3c1.9 2.2 1.8 13.8 0 18.3-2.4 5.7-5.9 10.4-9.2 12.4l-3.1 1.8.7-2.2c.4-1.3 1.7-3.2 2.9-4.4s1.5-1.5.6-.9c-2.6 2-2.9 1.6-1.9-2.5.5-2 .9-5.5.9-7.7.1-7.6 4-8.9 4.2-1.4.1 3.1.2 3.2 1.1 1.1.8-1.7.6-3.1-.6-5.7-1.6-3.4-1.6-3.4 1-5.5 2.4-1.8 2.4-2 .5-2-1.1 0-3 1.2-4.1 2.6-2.1 2.7-2.1 2.7-2.1.4 0-5 6.2-7.9 9.1-4.3m-128.6 1.8c1.4 1.3 2.5 3.4 2.5 4.6 0 1.9-.2 1.9-2.9-1-1.6-1.7-3.7-3.1-4.8-3.1-1.5 0-1.3.4 1.1 2.3 2.5 2 2.7 2.6 1.7 4.4-.6 1.2-1.1 3.7-1 5.5l.1 3.3.7-3.1c1.2-4.9 2.1-5.8 3.6-3.7 1.2 1.8 2.7 16.3 1.7 16.3-.3 0-1.5-.8-2.6-1.8-2.1-1.7-2.1-1.7-.2.5 1.1 1.3 2.5 2.3 3.1 2.3.7 0 1.5 1.1 1.7 2.5.7 3.2-.3 3.2-4.1-.1-5.7-4.7-8.4-10.7-8.9-19.6-.4-6.6-.2-8.2 1.3-9.8 2.4-2.6 4.1-2.5 7 .5m32.5-.5c-4 4-1.1 11 4.5 11 5 0 7.9-5.5 5.4-10.1-1-2-1-2 1.5-.4 2.1 1.4 5.6 5.6 5.6 6.8 0 .8-9.8 4.7-11.7 4.7-3.5 0-9.3-2.1-11.9-4.3-2.5-2.2-2.5-2.3-.7-4.4 1.7-2.1 6.9-5.3 8.6-5.3.4 0-.2.9-1.3 2m52 1c0 1.1-.6 2-1.4 2-1.8 0-2.9-1.6-2.1-3 1.1-1.8 3.5-1.1 3.5 1m-47 .4c0 .8-.5 1.8-1.1 2.2-1.4.8-3.3-1.1-2.5-2.5 1-1.6 3.6-1.3 3.6.3m26.3-.5c2 .8 2.5 1.8 3 6.4 1.7 16.9 17.4 26.3 32.3 19.3 7.7-3.6 11.9-10.3 13.9-21.8 1-6.3 2-5 2.3 3 .3 8.9-3.8 31.3-6.8 37.2-2.1 4.1-4 5.9-4 3.8 0-.7-.9 0-1.9 1.5l-1.8 2.9-.7-2.5c-.8-3.4-4.4-7.7-7.5-8.8-4.2-1.6-12.4-1.2-19.6 1-8 2.5-9.2 2.6-7.5.6.7-.8 2.6-1.5 4.2-1.5 3.4 0 4.4-1.9 2.9-5.7-1-2.8-1-2.8-.8.7.2 3.3 0 3.5-3.1 3.5-1.8 0-3.6.5-4 1.1-1.4 2.1-4.1 2.3-6.6.3-1.7-1.4-3.3-1.8-5-1.3-2.4.6-2.6.3-2.7-2.7l-.1-3.4-1 2.8c-1.2 3.4.5 6.1 3.6 5.3 1.2-.3 3 .2 4 1 1.1.8 3.1 1.5 4.5 1.5 1.6.1 2 .3.9.6-.9.2-6.4-.7-12.1-2.1-12.2-3-15.2-3.2-20.6-1-4.4 1.7-6.5 4.3-7.9 9.5l-.9 3.4-1.7-3.4c-1.2-2.2-2.1-3-2.5-2.2-1.6 2.5-4.2-4.1-7.1-17.2-2.6-12.1-4.4-32.1-2.8-31.1.4.2 1.2 3 1.8 6.2 1.5 7.2 3.3 10.7 7.9 15.5 8.2 8.6 23.6 8.4 31.8-.5 3.2-3.4 6.3-10.8 6.3-15.3 0-4.4.7-5.9 3-6.8 2.3-.8 3.6-.8 6.3.2m26.1 47.4c4.2 3.1 1.1 16.9-6.3 28.4-5.9 9.2-11.8 12.5-15.5 8.7-2.1-2-2-3.1.2-3.7.9-.3-1.9-.5-6.3-.5s-7.2.2-6.3.5c1.6.4 1.6.6.2 2.9-4.8 7.3-17.1-3.2-23.3-19.9-2.3-6.4-2.8-13.6-.9-15.5 1.6-1.6 6.9-1.5 14.3.3 8.4 2.1 21.5 1.9 30-.4s11.6-2.5 13.9-.8m-73.7 19.5c.9 1.6.8 1.8-1.1 1.8-1.6-.1-2.7 1.2-4.6 4.9-2.3 4.6-2.5 5.9-2.2 16.7.2 8.1-.1 11.9-.9 12.4s-.9.3-.4-.5c.4-.7-.1-2-1.3-3.2-2.7-2.5-4.2-7.9-4.2-15.4 0-7.9 1.6-13.2 4.7-16.1 3.2-2.9 8.3-3.2 10-.6m-20.5.8 4.4.6-1.3 5.1c-1.4 5.6-.7 12.9 2.3 22.5 2 6.3 2 6.4-7.7 19-3.8 4.8-8.9 11.8-11.5 15.6-5.3 7.7-10.8 20.6-9.4 22 1.3 1.3 1 1.6 6.4-9.4 2.5-5.2 7.1-12.7 10.1-16.5 3-3.9 7.9-10.3 10.7-14.3 4.2-5.8 5.4-6.9 6-5.5 2.2 5.8-.3 15.9-8.3 32.8-8.3 17.6-11.9 36.1-11.9 61.3 0 6.4-.3 20.2-.7 30.6l-.6 18.8-4.5-.6c-5.1-.7-13.9-4.4-16.4-6.9-1.3-1.4-1.7-3.7-1.6-12.5v-10.7l1.2 5.7c.7 3.2 1.6 6.1 2.1 6.5.4.5.5-.1.1-1.2-.4-1-.9-3.8-1.3-6-.4-3.6-.1-4.6 2.2-7.1 3.4-3.7 6.1-8.8 7.6-14.7.7-2.8 1.7-4.7 2.8-4.9 1.2-.3 1.1-.5-.6-1-2-.5-2.3-.1-3.3 4.6-1.3 6.1-6.2 15.1-9.1 16.7-2.1 1.1-2.1 1-1.5-7.2.3-4.6 1.1-18.3 1.6-30.4 1.7-34.2 5.5-54.9 13.6-73.6 9-20.9 9.9-27.9 1.5-12-4.5 8.6-5.1 7.9-5.1-5.9 0-11.1 2.4-16.4 9-19.8 4.7-2.4 6.2-2.5 13.2-1.6m23.6 5.8c.2.2-.2 1.4-.8 2.6-1.6 3-.5 8.3 2.5 11.9 9.9 11.7 37.2 18.1 50 11.7l4.8-2.5 2.9 2.2c2 1.5 2.5 2.3 1.6 2.8-2.3 1.2-20 4.7-30.3 5.9s-17 3-21.4 5.8c-10.5 6.4-14.2 9.1-18.8 13.6-2.9 2.7-5.3 4.8-5.3 4.6 0-.3 1.2-4.1 2.6-8.5 2.3-7.1 2.7-10.3 3.3-28 .4-11 1.1-20.8 1.6-21.8.6-1.5 1.5-1.8 3.8-1.3 1.7.3 3.2.8 3.5 1m18.5 14.3c9.2 7.2 11.1 8.4 17 10.4 6 2 4 2.3-5.3.9-7.7-1.3-19.1-6.4-24.3-10.9-4-3.6-5.8-9.1-3.7-11.6 1.1-1.3 1.8-1 5.4 2.2 2.3 2.1 7.2 6.1 10.9 9m53.9 9.3c1.2 1.9 4.3 5.8 7 8.7 2.6 2.8 4.8 5.5 4.8 6 0 .4-5.1.8-11.3.9-10.7 0-11.5.2-19.4 3.7-9.7 4.4-12.1 4.5-29.8 1.5l-13-2.3 6.5-.6c5.6-.5 5.9-.6 2-.8-7.9-.3-2.2-2 13.9-4.2 14.6-1.9 29.7-5.5 35-8.4l2.6-1.4-2.5-.1c-1.4 0-4.1-1.4-5.9-3l-3.5-3 2.9-3 2.9-3 2.9 2.7c1.5 1.6 3.8 4.4 4.9 6.3m-88.7 7.9c-.8 1.6-4.9 7.3-9 12.6-4.2 5.3-8.7 11.4-10.2 13.6-1.4 2.1-2.8 3.9-3 3.9-.9 0 3.3-6.2 10.4-15.1 4.1-5.2 8.6-11.3 10-13.7 2.8-4.8 4.1-5.7 1.8-1.3m77.6 13.3c-6.2 6-5.5 6.9 1.9 2.7 11.4-6.6 19-6.3 25.3 1.1 4 4.7 35.3 66.3 36.3 71.4.8 4.8-1.8 11.7-5.7 15-4.2 3.6-8.1 4.4-27.8 5.6-9.6.7-19.9 1.8-22.9 2.6-5.5 1.5-5.5 1.5-8.4-1.3-2.1-2-2.8-2.3-2.8-1.1 0 3-2.9 2.8-5.6-.5-1.5-1.8-2.5-2.4-2.1-1.5.5 1.3.1 1.8-1.2 1.8-1 0-3.2.3-4.8.6-2.8.5-3.1.3-4.7-3.5-1.7-4.3-2.4-15.1-1.2-18.8.5-1.7 1.6-2.2 5.4-2.5 2.6-.2 4.9 0 5 .4.2.5 1.4-.6 2.6-2.4 2.5-3.8 4.7-4.5 6.9-2.4 1.3 1.4 1.6 1.4 2.8 0 3.3-4 10.6-5.1 36.7-5.6 6.1-.2 11.2-.5 11.2-.7s-.8-1-1.7-1.7c-1.3-.9-5.6-1.4-14.8-1.4h-13l-7.3-14c-5.6-10.7-7.8-14-9.3-14-1 0-1.9.2-1.9.5s1.9 4.3 4.2 8.9l4.2 8.5-7.4 6.8c-4 3.7-8.1 7.1-9 7.5-1 .4-2.4 1.6-3.2 2.7-1 1.4-3.1 2.2-6.9 2.7-2.9.4-5.9 1.1-6.5 1.6-.8.6-2.5-.7-5.3-3.9-4-4.7-6.1-10.6-6.1-17.2 0-6.1-6.6-6.7-9.6-.9-1.3 2.4-1.5 4.6-1 9.4l.6 6.1-8 .5c-9.6.6-12 2.2-12 7.8 0 2.1.7 4.3 1.5 5s1.5 2.5 1.5 4.1c0 1.5.4 3 .9 3.3s1.2 2.1 1.5 4c.4 1.9 1.8 5 3.1 7 2.1 3.1 2.2 3.5.6 2.6-3.4-1.8-9.7-9.8-11.1-14-1.6-4.9-2.3-5.3-7-4l-3.5 1 3.7-.5c3.7-.4 3.8-.3 6.4 5.6 3.3 7.2 9.4 13.1 16.2 15.5 4.4 1.6 5.2 2.2 5.5 4.9.4 2.8.4 2.7.5-.6.2-3.6.3-3.7 5-4.4 2.6-.4 7.4-1.6 10.7-2.7 5.6-1.9 6-1.9 7.2-.2.7 1 1.3 2.1 1.3 2.5s.9.9 2 1.1c2.1.3 2.1.4-.3 5-1.3 2.6-2 4.5-1.5 4.2s.8 1.8.6 4.8l-.3 5.3-6.5 3.2c-14.5 7.2-39.1 11.7-53.6 9.7l-6.9-.9.1-31.5c0-32.7.9-44.2 4.5-58.5 4.2-16.6 15.4-33.8 25.2-38.3 2.3-1.1 6.8-2.3 9.9-2.7l5.7-.6-5.3 7.8c-3.1 4.7-6.7 12-9 18.3-2.2 5.8-5.6 14.1-7.7 18.5-3.9 8.2-4.1 9.7-1.1 7.9 2.6-1.6 6.1-8.6 11.4-22.3 4.8-12.6 8.6-19.8 13.7-26l2.8-3.4 5.8 1.1c10.6 2.2 18.1 1.5 27-2.3 4.4-1.9 8.4-3.4 8.9-3.5.6 0-.5 1.4-2.3 3.2m-45 6c-4.7 6.3-8.2 13.3-12 23.6-4 10.6-8.3 20.3-8.8 19.8-.3-.2.9-3.5 2.6-7.4 1.7-3.8 4.4-10.7 6.1-15.3 3.5-9.5 6.8-15.5 11.7-21.7 4.8-5.9 5.1-5.2.4 1M94.5 266.1c.4 2.7 2 7.5 3.5 10.6 2.2 4.4 2.6 6.1 1.9 8-1.3 3.5-1.1 8.1.7 14.8.9 3.3 1.7 6.7 1.8 7.5.2 2.3-6.1 3.9-15.9 3.9-7.3.1-9.6-.3-12.2-1.9-3.2-1.9-4.4-5.2-2.4-6.4 1.6-1 13.6-3.3 14.9-2.8 3.4 1.1-.8 5.2-5.4 5.2-3 0-3.4.3-3.4 2.5 0 3.1 0 3.1 5.9 0 4.8-2.4 6.1-4.3 6.1-9.3 0-2.6.3-2.7 3.6-.6 3.7 2.5 4 1 .5-2.3-2.4-2.3-3.2-4-3.9-9-.5-3.5-.5-6.8 0-7.5s.6-4.3.2-8.1c-.4-4.7-.2-7.2.6-8.2 2.1-2.5 2.8-1.7 3.5 3.6m62.8-.6c-.9 1.9-1.8 3.3-2.1 3.1-.4-.5 2.6-6.6 3.3-6.6.3 0-.3 1.6-1.2 3.5m-3.2 7.2c-1.2 2-1.4 1.4-.5-1.2.4-.9.9-1.4 1.1-1.1.3.2 0 1.3-.6 2.3m-14.4 6c-.4 3.2-.9 11.3-1.3 18-.7 13.1-.8 13.2-5.8 11.3-1.7-.6-2.6-.6-2.6 0s-1.1 1.5-2.4 2.1c-2 1-3 .8-5.4-.9-1.6-1.2-3.2-1.8-3.6-1.4-.4.3-2.6 1.2-4.9 1.9-3.9 1.2-4.3 1.1-5.9-1-2.1-2.7-4.6-10.1-4.9-14.2-.3-6.9-.1-7.4 4.2-8.5 3.2-.9 4.4-.9 4.9.1.5.7 1 0 1.5-2 .8-3.7 1.9-4.5 4.3-3.2 1.5.8 2.2.4 3.6-2 1.4-2.3 2.4-2.9 5.4-3 2 0 5.5-.6 7.7-1.4 2.2-.7 4.4-1.3 4.9-1.4s.6 2.5.3 5.6m-54.6 1c1.6 1 2.9 2.6 2.9 3.6 0 1.6-.5 1.8-2.7 1.3-7.1-1.6-13.3-1.8-14.8-.6-1.2 1-1.5 1-1.5-.2 0-1.8 2-4.4 4-5.1 3.2-1.1 9.3-.6 12.1 1m-1.6 6.7c2.3.7 4.1 1.9 4.3 2.9.3 1.5-.6 1.7-6.7 1.7-3.8 0-8.1.4-9.5 1-2.2.8-2.6.7-2.6-.8 0-1 .7-2.8 1.6-4 1.7-2.5 6.3-2.8 12.9-.8m136 9.3c.9 7.8 2.6 11.3 7.6 16.8 4.2 4.5 4.2 4.6 4.4 12.8.2 4.5.6 8.9.9 9.8.5 1.2-.3 2-3.6 3.2-6.7 2.4-12 3.7-15.8 3.7-4.1 0-11.6-4.1-8.7-4.8 2.5-.5 2.1-1.5-1.3-3.4s-4.4-5.6-1.1-3.8c1.3.6 2.2.7 2.6 0 .3-.5-1-1.6-3-2.4-2.6-1.1-3.5-2.1-3.5-3.9 0-2 .4-2.3 3-1.9 4.6.7 3.5-1.2-1.5-2.6-4.1-1.1-4.5-1.5-4.5-4.2 0-3.8 2.7-5 10.8-4.9 4.9 0 5.3.2 3.2 1-1.4.6-4 .8-5.7.5-4.2-.6-5.3 1-1.3 1.9 3.8.8 8.9-.2 11.3-2.3 1.6-1.5 1.8-2.6 1.2-9.3-.7-7.9.3-11.9 2.9-11.9q1.35 0 2.1 5.7M88 295.5c0 1.6-.5 2.3-1.3 2-.7-.3-4.8.4-9.1 1.5-4.4 1.1-8.1 2-8.3 2s-.3-1.4-.1-3.2c.4-3.9 2.2-4.6 12.1-4.7 6.5-.1 6.7 0 6.7 2.4m184 6.7c0 .5-1.7.8-3.8.8s-5.5.9-7.7 2c-3.9 2-3.9 2 2-4l5.9-6 1.8 3.2c.9 1.8 1.7 3.6 1.8 4"/><path d="M286 73.5c.7.9 1.5 1.3 1.7 1.1.7-.7-.7-2.6-1.9-2.6-.6 0-.6.6.2 1.5m1 4c.7.9 1.5 1.3 1.7 1.1.7-.7-.7-2.6-1.9-2.6-.6 0-.6.6.2 1.5m-99 5c-.7.9-1.1 1.8-.8 2 .3.3 1.1-.1 1.8-1s1.1-1.8.8-2c-.3-.3-1.1.1-1.8 1m99.5 2.5c.3.5 1.1 1 1.6 1 .6 0 .7-.5.4-1-.3-.6-1.1-1-1.6-1-.6 0-.7.4-.4 1M187 87.5c0 .8.2 1.5.4 1.5s.6-.7 1-1.5c.3-.8.1-1.5-.4-1.5-.6 0-1 .7-1 1.5m58.1 55c0 2.2.6 5.3 1.4 7 1.3 2.9 1.3 2.8.8-2.5-.7-7-2.2-10.1-2.2-4.5m18 32c-6.9 3.8-35.4 4.4-45.6 1-3.5-1.2-5-1.4-5.9-.5-.8.8-.8 1.3.2 1.9.7.4 3.5 4.8 6.3 9.7s5.9 9.8 6.8 10.8c4.2 4.9 15.5 7 23.2 4.5 5.2-1.8 9-6 13.9-15.6 2.5-4.8 5.1-9.2 5.8-9.6 1-.7 1-1.2.1-2.3-1.3-1.6-1.6-1.6-4.8.1m-32.3 5.5c8.9.8 15.2.5 28-1.6 4.3-.7 5.5.3 2.8 2.5-2.3 2-14.7 4.1-23.8 4.1-11.9 0-18.2-1.5-20.3-4.7-1.7-2.6-1.7-2.6.9-1.9 1.5.4 7 1.1 12.4 1.6m15 16c7.7-.5 8.9.1 4.5 2.4-6.6 3.3-17.6 2.8-21.4-1.1-1.8-1.8-1.7-1.8 3.9-1.3 3.1.3 9 .3 13 0m-88 128.7c.6.2 1.8.2 2.5 0 .6-.3.1-.5-1.3-.5s-1.9.2-1.2.5M144 359.9c0 .5.5 1.3 1 1.6.6.3 1 .2 1-.4 0-.5-.4-1.3-1-1.6-.5-.3-1-.2-1 .4m123.3-126.2c.9.2 2.3.2 3 0 .6-.3-.1-.5-1.8-.5-1.6 0-2.2.2-1.2.5m-5.5 1c.6.2 1.8.2 2.5 0 .6-.3.1-.5-1.3-.5s-1.9.2-1.2.5m-38.5 7c.9.2 2.5.2 3.5 0 .9-.3.1-.5-1.8-.5s-2.7.2-1.7.5m-49 83c.9.2 2.3.2 3 0 .6-.3-.1-.5-1.8-.5-1.6 0-2.2.2-1.2.5m35.9 30.8c0 1.6.2 2.2.5 1.2.2-.9.2-2.3 0-3-.3-.6-.5.1-.5 1.8m-1.6 6.1c-.4 1.4-.5 2.8-.3 3.1.3.2.8-.8 1.1-2.3.4-1.4.5-2.8.3-3.1-.3-.2-.8.8-1.1 2.3m-94.5-65c0 1.1.3 1.4.6.6.3-.7.2-1.6-.1-1.9-.3-.4-.6.2-.5 1.3"/><path d="M208.883 340.805c-1.093-.422-2.644-1.198-3.447-1.724l-1.46-.957 1.272-.997 1.274-.998-1.48-1.217c-.815-.669-2.22-1.785-3.125-2.48-1.885-1.449-2.346-3.226-.594-2.288.578.31 1.574.562 2.214.562 1.903 0 1.065-1.74-1.527-3.17s-4.195-3.46-3.717-4.706c.222-.58 1.113-.82 3.049-.82 4.242 0 3.517-1.342-1.614-2.988-3.804-1.22-4.348-1.675-4.348-3.635 0-2.282.81-3.5 2.787-4.189 1.844-.642 11.23-.848 10.614-.232-.203.202-2.363.386-4.8.407-3.022.027-4.505.255-4.659.716-.626 1.875 7.892 2.426 11.548.747 4.093-1.88 4.29-2.395 3.896-10.182-.366-7.215.218-11.462 1.651-12.012 1.345-.516 1.861.652 3.148 7.125 1.406 7.076 2.38 9.07 7.3 14.96 3.663 4.384 4.365 6.253 4.41 11.73.017 2.092.229 5.516.47 7.608.275 2.373.238 4.061-.096 4.486-.295.375-3.257 1.554-6.582 2.62-7.008 2.247-13.02 2.854-16.184 1.634M83.15 308.25c5.066-2.714 6.564-4.576 7.094-8.821.204-1.629.526-2.954.715-2.945.19.01 1.324.62 2.52 1.356 4.009 2.47 4.685 1.494 1.43-2.064-2.928-3.203-3.684-4.924-4.443-10.113-.505-3.454-.512-5.014-.03-6.621.42-1.406.51-4.225.272-8.507-.327-5.864-.267-6.515.71-7.714 1.144-1.4 2.332-1.177 2.332.44 0 2.047 2.192 9.396 4.143 13.887l2.039 4.695-.68 4.044c-.76 4.527-.543 6.866 1.346 14.483.717 2.894 1.304 5.761 1.304 6.372 0 2.444-6.073 3.851-16.576 3.841l-6.522-.006z" style="fill:#ffd2bb;fill-opacity:1;stroke-width:.543478"/><path d="M69.293 299.46c0-.66.263-1.953.583-2.872.767-2.198 2.583-2.794 9.772-3.207 6.4-.367 8.312.145 8.02 2.145-.144.99-.838 1.292-4.788 2.075-2.54.505-6.637 1.4-9.103 1.989l-4.484 1.072zM69.293 283.908c0-1.336 1.803-3.806 3.368-4.615 2.37-1.226 9.33-.836 11.904.667 1.878 1.096 3.73 3.665 3.098 4.297-.193.193-2.614-.038-5.38-.513-6.217-1.068-9.553-1.09-11.495-.077-.824.43-1.495.538-1.495.241" style="fill:#ffd2bb;fill-opacity:1;stroke-width:.543478"/><path d="M69.247 291.926c-.565-1.471 1.445-5.009 3.386-5.96 3.574-1.75 14.478.755 14.862 3.415.157 1.084-1.055 1.41-5.234 1.414-4.203.003-8.951.498-11.21 1.168-1.424.423-1.63.418-1.804-.037M77.272 310.039c-4.449-1.32-7.492-5.18-5.503-6.98 1.195-1.082 13.157-3.539 14.989-3.08 1.8.453 1.013 2.413-1.544 3.841-1.03.576-2.147.852-3.891.964-3.087.198-3.555.627-3.412 3.118.091 1.586.194 1.802.94 1.977.593.14.69.252.334.387-.276.105-1.137.002-1.913-.227M226.85 210.748c-1.608-.76-2.909-1.779-5.025-3.934-3.357-3.418-5.73-6.868-8.218-11.948-2.31-4.713-3.396-8.021-4.042-12.308-.662-4.39-.422-6.612.87-8.058l.951-1.063 3.961.038c3.144.03 4.962.262 8.816 1.123 4.41.985 5.518 1.1 12.099 1.257 8.056.193 11.86-.123 17.561-1.456 2.01-.47 4.634-1.081 5.83-1.358 3.177-.737 6.608-.733 7.98.007 3.948 2.13 3.025 11.198-2.258 22.181-3.688 7.666-8.663 13.933-12.465 15.704-2.051.955-3.268 1.049-4.607.356-1.006-.52-3.046-2.673-3.046-3.214 0-.18.46-.608 1.021-.95 1.005-.61 1.01-.624.251-.827-1.266-.34-11.777-.233-12.321.124-.42.275-.378.364.25.536 1 .274.951.76-.244 2.41-1.91 2.637-3.914 3.013-7.365 1.38zm19.238-8.186c3.407-.721 5.727-1.986 8.248-4.495 2.609-2.597 4.225-5.018 8.103-12.138 3.189-5.855 4.865-8.582 5.697-9.268.736-.606.704-1.241-.12-2.399-1.044-1.465-1.71-1.495-4.59-.201-5.594 2.512-11.732 3.338-24.866 3.344-9.812.005-14.805-.447-19.754-1.79-6.01-1.629-6.989-1.667-7.721-.298-.313.583-.237.847.45 1.586 1.224 1.314 3.143 4.268 6.669 10.262 6.767 11.506 8.216 13.018 14.12 14.734 4.253 1.237 9.796 1.504 13.764.663" style="fill:#ffd2bb;fill-opacity:1;stroke-width:.334822"/><path d="M197.909 177.405c-1.375-2.671-1.916-3.138-2.915-2.514-.86.537-.858.539-1.77-.868-1.567-2.414-4.11-11.286-5.692-19.86-1.703-9.228-3.158-23.463-2.683-26.242l.233-1.359.47 1.34c.26.736.77 2.695 1.135 4.352 1.365 6.2 2.86 9.794 5.495 13.219 4.833 6.28 10.695 9.198 18.42 9.168 4.427-.017 6.957-.624 10.715-2.571 6.69-3.467 11.216-11.116 11.88-20.083.295-4.003.73-5.01 2.547-5.904 2.632-1.295 7.071-.484 8.232 1.505.327.559.836 2.666 1.132 4.683.983 6.698 3.085 11.403 6.788 15.187 3.523 3.6 7.619 5.658 12.756 6.409 7.656 1.12 16.54-2.47 21.015-8.49 2.924-3.935 4.457-8.01 6.31-16.783.837-3.956 1.29-2.64 1.435 4.163.135 6.338-.529 12.272-2.48 22.183-1.888 9.594-3.447 14.362-5.824 17.817-1.03 1.497-2.017 1.994-2.017 1.015 0-.276-.137-.502-.305-.502-.396 0-1.924 1.82-2.561 3.054-.275.53-.608.964-.741.963-.134 0-.506-.894-.827-1.986-1.036-3.526-4.891-7.814-7.879-8.762-.686-.217-3.286-.463-5.777-.546-5.372-.178-8.376.265-15.222 2.241-5.155 1.489-6.288 1.647-5.978.838.312-.811 2.023-1.53 4.43-1.862 3.663-.503 4.38-1.908 3.022-5.929-.944-2.794-1.439-2.693-1.145.235.332 3.303.118 3.568-3.078 3.836-1.87.156-2.848.409-3.447.89-2.856 2.288-3.747 2.352-6.75.482-2.012-1.253-2.264-1.322-4.802-1.322h-2.678l-.232-2.8c-.128-1.539-.3-2.865-.382-2.948-.223-.223-1.563 3.913-1.563 4.825 0 1.038.856 2.661 1.62 3.07.333.178 1.575.298 2.758.265 1.753-.049 2.392.09 3.451.744.715.442 1.845 1.011 2.511 1.265l1.212.46-1.675-.183c-.92-.101-4.009-.717-6.863-1.37-10.99-2.512-11.49-2.599-15.067-2.612-2.567-.009-3.968.15-5.19.59-6.074 2.185-8.291 4.53-9.91 10.476-.392 1.438-.736 2.643-.765 2.678-.03.034-.636-1.071-1.35-2.457m49.573-29.33c-.24-3.743-1.006-7.872-1.565-8.43-1.023-1.023-1.325 3.051-.512 6.888.452 2.133 1.643 4.974 2.086 4.974.116 0 .112-1.545-.008-3.432z" style="fill:#ffd2bb;fill-opacity:1;stroke-width:.334822"/><path d="M206.736 149.477c-3.336-.49-5.666-1.59-7.704-3.633-2.01-2.015-4.291-5.585-5.403-8.456-1.252-3.233-1.155-13.708.141-15.27.687-.828 3.541-2.078 6.367-2.79 3.95-.993 12.638-1.246 16.967-.493 5.208.906 8.52 2.947 10.302 6.353.67 1.282.3 1.128-3.004-1.242-3.732-2.678-5.7-3.368-9.614-3.371-5.165-.004-7.882 1.327-13.552 6.639l-3.004 2.815 1.631 1.448c6.224 5.52 10.919 7.561 16.599 7.216 2.293-.14 3.625-.467 6.858-1.687 2.206-.833 4.124-1.445 4.261-1.36.398.246-.853 3.19-2.27 5.347-4.457 6.783-10.716 9.641-18.575 8.484M263.696 148.295c-6.186-1.663-11.605-6.727-12.618-11.793-.283-1.417.24-1.403 3.942.106 7.33 2.988 15.673 1.165 21.754-4.752 1.45-1.41 2.634-2.75 2.634-2.976 0-.855-6.08-6.149-8.387-7.302-6.157-3.081-12.165-2.148-18.063 2.804-2.502 2.1-2.512 2.105-2.62 1.195-.222-1.861 2.54-4.77 5.968-6.284 4.368-1.93 17.222-2.272 23.35-.622 3.446.928 5.7 4.302 6.023 9.017.472 6.884-3.28 15.242-8.434 18.788-3.258 2.24-9.075 3.022-13.55 1.82" style="fill:#ffd2bb;fill-opacity:1;stroke-width:.334822"/><path d="M235.38 118.79c-2.073-.287-5.056-1.185-7.18-2.162-4.735-2.177-7.636-3.022-14.715-4.283-3.018-.537-5.635-1.125-5.816-1.305-.537-.537 2.397-.808 7.044-.65 3.54.12 5.114.363 9.309 1.436 2.777.71 5.3 1.195 5.608 1.077.825-.316.71-1.99-.194-2.818-2.685-2.46-10.885-4.372-16.063-3.745-2.866.347-5.659 1.47-10.331 4.152-5.097 2.926-12.458 5.47-17.563 6.07-1.56.184-1.804.127-2.136-.493-1.175-2.196-1.328-26.657-.201-32.029 1.073-5.11 4.403-12.766 5.907-13.58.45-.243.582-.062.757 1.035.128.8.396 1.329.672 1.329.536 0 2.869-2.485 2.909-3.098.014-.23.057-.838.095-1.35.046-.637.623-1.466 1.814-2.608.98-.94 1.746-1.972 1.746-2.354 0-1.51 6.275-6.393 11.233-8.74 2.212-1.048 2.519-1.103 6.178-1.103 3.373 0 4.32.138 7.637 1.11 5.58 1.633 8.066 2.055 13.457 2.283 6.075.257 9.554-.16 15.402-1.846 9.11-2.628 15.658-2.615 20.926.04 1.854.934 8.952 8 9.913 9.867.831 1.617 3.201 3.665 4.627 4 2.114.495 4.168 3.793 6.263 10.056 1.988 5.942 2.49 9.134 2.698 17.18.186 7.194-.226 14.991-.924 17.513-.194.7-.596 1.367-.893 1.481-1.715.659-13.06-2.81-18.943-5.792-5.164-2.618-7.673-3.231-13.288-3.252-7.674-.027-12.121 1.59-13.36 4.86-.714 1.885.8 1.833 8.17-.278 3.01-.863 3.856-.96 8.37-.966 4.081-.005 5.322.11 6.616.609.876.338 1.507.752 1.403.92-.104.17-1.455.307-3.002.307-7.528 0-13.095 1.245-19.413 4.342-5.412 2.652-9.755 3.473-14.733 2.785M188.13 88.405c.297-.454.54-1.218.54-1.698 0-.713-.137-.852-.753-.765-.642.091-.768.34-.855 1.697-.113 1.76.247 2.019 1.068.766m101.54-2.703c.272-.706-.82-1.83-1.777-1.83-.974 0-1.026.764-.115 1.675.799.799 1.62.866 1.893.155m-100.798-1.963c1.138-1.139 1.525-2.545.7-2.545-.922 0-2.575 1.983-2.575 3.088 0 .898.61.72 1.875-.543m100.185-5.662c.138-.714-1.466-2.318-2.18-2.18-.917.179-.85.792.214 1.93 1.043 1.117 1.78 1.21 1.966.25m-1.005-4.018c.139-.713-1.466-2.318-2.18-2.18-.917.179-.849.793.215 1.93 1.043 1.117 1.779 1.21 1.965.25M295.553 154.436c.475-1.387 1.09-2.379 2.674-4.315.699-.854 1.27-1.65 1.27-1.77s-.564.168-1.255.64c-1.585 1.08-1.68.781-.945-2.955.296-1.503.677-4.585.847-6.849.326-4.351 1.004-6.502 2.113-6.707.835-.154 1.495 1.605 1.779 4.74.128 1.412.335 2.568.46 2.568.472 0 1.354-2.423 1.354-3.722 0-.774-.43-2.337-1.004-3.644-.553-1.259-1.005-2.588-1.005-2.955 0-.396.713-1.253 1.758-2.115 2.242-1.849 2.383-2.065 1.589-2.428-1.167-.534-3.501.66-5.352 2.736l-1.678 1.882v-1.217c0-3.236 2.603-5.948 5.71-5.948 2.006 0 3.444 1.507 4.003 4.197.577 2.772.26 11.412-.51 13.884-1.095 3.52-3.582 7.84-6.275 10.9-1.267 1.44-4.96 4.166-5.64 4.166-.147 0-.098-.49.107-1.088M180.754 155.412c-4.551-3.364-7.767-7.93-9.128-12.96-1.34-4.955-1.842-13.608-.917-15.822.63-1.51 2.698-3.248 3.862-3.248 1.805 0 4.76 2.75 5.908 5.498.995 2.382.345 2.456-2.033.23-3.002-2.808-5.424-4.003-6.052-2.987-.153.248.53 1.104 1.801 2.26 1.126 1.025 2.084 2.088 2.129 2.365.044.276-.248 1.535-.65 2.797-.515 1.622-.73 3.14-.73 5.173 0 1.583.126 2.735.28 2.56.153-.175.612-1.598 1.02-3.163.916-3.52 1.488-4.498 2.36-4.032.801.43 1.268 1.803 1.881 5.537.518 3.156 1.054 11.217.745 11.217-.098 0-1.051-.677-2.117-1.506-1.067-.828-2.01-1.434-2.097-1.347-.36.36 2.384 3.178 3.733 3.83.802.39 1.623 1.068 1.824 1.51.575 1.263.836 3.107.472 3.332-.182.113-1.213-.447-2.29-1.244M232.7 225.468c-6.85-.714-12.64-2.492-20.088-6.17-7.647-3.775-10.988-6.662-12.592-10.886-1.142-3.005-.495-6.347 1.229-6.347.418 0 2.305 1.36 4.562 3.287 4.682 4 12.597 10.345 16.008 12.835 3.936 2.872 6.35 4.206 10.265 5.671 3.426 1.283 4.9 2.037 3.78 1.934-.266-.024-1.69-.17-3.163-.324" style="fill:#ffd2bb;fill-opacity:1;stroke-width:.334822"/><path d="M174.194 376.925c-2.26-.302-4.248-.69-4.42-.861-.17-.172-.082-15.127.198-33.235.528-34.115.805-38.844 2.903-49.49 3.781-19.185 13.62-36.756 24.415-43.603 2.712-1.72 8.296-3.541 12.144-3.96 1.556-.168 3.317-.408 3.911-.532.927-.193.603.49-2.268 4.767-4.32 6.44-7.64 13.06-11.74 23.406-1.813 4.578-4.707 11.473-6.432 15.322-3.32 7.413-3.798 9.23-2.5 9.5 2.37.493 6.504-6.713 12.656-22.06 5.924-14.778 9.324-21.008 15.897-29.13l.86-1.063 5.422 1.036c7.002 1.338 15.32 1.414 20.043.184 1.816-.474 5.921-1.912 9.123-3.197 3.201-1.284 5.917-2.24 6.034-2.123.117.118-1.196 1.748-2.917 3.624-4.591 5.003-3.71 5.196 4.85 1.066 7.781-3.754 11.013-4.596 14.842-3.87 5.535 1.05 8.357 3.887 13.896 13.97 9.544 17.375 25.007 48.085 29.512 58.612 1.718 4.015 1.877 4.72 1.664 7.377-.456 5.682-4.563 11.802-9.28 13.832-3.097 1.332-9.16 2.22-21.262 3.113-12.492.921-21.929 1.968-25.855 2.868-4.545 1.042-5.35.917-7.76-1.205-1.178-1.037-2.329-1.886-2.557-1.886s-.66.654-.963 1.455c-.46 1.221-.723 1.403-1.636 1.129-.598-.18-2.05-1.259-3.226-2.399-2.416-2.34-2.938-2.534-2.726-1.01.134.96-.1 1.09-2.447 1.368-5.607.663-6.02.583-7.001-1.369-1.644-3.27-2.194-6.706-2.195-13.72-.001-6.43.05-6.805 1.052-7.617 1.388-1.124 7.137-1.742 8.654-.93.973.52 1.213.42 2.417-1.018 3.463-4.135 4.051-4.663 5.198-4.663.65 0 1.722.425 2.381.944 1.624 1.277 2.062 1.204 4.158-.69 3.46-3.125 8.04-3.836 30.29-4.699 9.03-.35 16.526-.745 16.66-.878.446-.448-1.877-2.226-3.57-2.732-.921-.276-7.146-.623-13.831-.771l-12.156-.27-3.123-5.947c-5.805-11.053-9.518-17.73-10.977-19.745-1.231-1.698-1.705-2.004-3.101-2.004-1.003 0-1.649.23-1.65.59 0 .324 1.855 4.381 4.124 9.016l4.125 8.428-2.59 2.385c-6.43 5.92-11.694 10.464-13.296 11.476-.958.606-2.474 1.834-3.37 2.73-1.69 1.69-2.86 2.13-8.802 3.31-1.946.386-4.035.847-4.642 1.025-.923.27-1.541-.137-3.782-2.492-4.344-4.565-7.139-10.888-7.145-16.167-.004-3.004-.798-5.525-2.007-6.372-2.525-1.769-6.39-.124-8.291 3.527-1.046 2.01-1.09 2.452-.836 8.578l.267 6.458-1.994.242c-1.097.133-3.788.366-5.979.518-7.45.516-9.987 1.487-11.15 4.27-1.072 2.565-.839 5.453.672 8.324.736 1.401 1.485 3.492 1.663 4.647s.734 2.95 1.236 3.988 1.27 3.113 1.708 4.611c.437 1.5 1.491 3.831 2.344 5.183s1.452 2.554 1.334 2.672c-.119.119-1.498-1.046-3.066-2.588-3.338-3.283-7.039-8.603-8.235-11.84-1.543-4.172-2.548-4.7-6.9-3.62-1.64.407-3.14.884-3.334 1.062-.195.177 1.291.31 3.302.298l3.655-.024 2.123 4.27c4.21 8.47 7.863 12.158 15.906 16.054 5.34 2.587 6.264 3.407 6.264 5.561 0 .65.212 1.314.472 1.474.29.18.471-.624.471-2.095 0-3.182.846-3.963 5.042-4.656 1.826-.301 5.886-1.294 9.023-2.205 3.136-.912 6.122-1.657 6.635-1.657.88 0 2.492 1.778 2.964 3.27.118.37.944.929 1.836 1.24s1.58.75 1.526.976c-.053.225-.842 2.105-1.753 4.176-1.065 2.423-1.493 3.928-1.2 4.222.681.681.57 8.425-.134 9.358-.95 1.258-10.077 5.369-16.913 7.617-15.155 4.984-32.106 6.973-44.86 5.264m34.933-12.892c.752-1.432 1.155-4.835.573-4.835-.604 0-1.173 1.353-1.637 3.892-.341 1.869.285 2.425 1.064.943m1.958-8.844c0-.878-.212-1.727-.472-1.887-.288-.179-.472.554-.472 1.887s.184 2.065.472 1.886c.26-.16.472-1.009.472-1.886m-33.727-30.66c0-.58-1.908-.891-2.969-.484-.672.257-.683.36-.083.749.865.561 3.052.371 3.052-.266" style="fill:#d3d4d9;fill-opacity:1;stroke-width:.471698"/><path d="M156.604 375.01c-3.29-.725-6.676-2.015-10.495-4-5.491-2.855-5.478-2.824-5.65-13.935l-.137-8.962 1.18 4.46c.648 2.454 1.525 4.789 1.947 5.19.701.664.747.624.52-.452-1.387-6.575-1.738-8.897-1.503-9.965.151-.689 1.443-2.709 2.87-4.488 2.973-3.708 5.31-8.298 6.79-13.34.677-2.306 1.495-3.967 2.399-4.87.754-.755 1.371-1.445 1.371-1.534s-.66-.307-1.467-.484c-2.022-.444-2.58.267-3.723 4.736-1.761 6.887-7.475 16.738-9.708 16.738-.801 0-.82-.977-.207-10.378.246-3.761.672-11.51.946-17.217 2.157-44.85 5.135-61.954 14.845-85.272 5.184-12.448 7.278-19.209 5.95-19.209-.608 0-1.845 1.838-4.763 7.076-3.3 5.924-4.246 7.25-4.787 6.708-.748-.748-1.031-11.788-.42-16.378 1.02-7.671 3.631-11.59 9.601-14.414 3.72-1.76 5.735-1.988 11.186-1.27 5.15.678 4.808.037 3.586 6.722-.93 5.09-.479 10.79 1.387 17.5 2.322 8.35 2.383 8.843 1.372 11.116-.5 1.124-4.505 6.82-8.9 12.657-12.061 16.02-15.882 22.232-18.889 30.712-1.46 4.117-1.468 6.316-.022 6.316.74 0 1.855-1.775 5.27-8.402 2.383-4.621 5.248-9.822 6.369-11.556 2.453-3.8 18.383-25.107 19.4-25.952.988-.82 1.315-.166 1.624 3.24.504 5.556-1.646 12.838-8.14 27.576-4.918 11.16-7.75 19.52-9.429 27.83-2.181 10.796-2.582 16.026-3.276 42.689-.368 14.14-.813 29.263-.989 33.608l-.32 7.901-1.48-.037c-.813-.02-2.752-.318-4.308-.66m-10.7-14.279c-.107-.929-.45-1.34-1.21-1.448-1.26-.179-1.386.662-.281 1.883 1.112 1.228 1.664 1.067 1.49-.435m14.473-36.196c0-.575-1.457-.89-2.416-.522-.39.15-.57.499-.4.775.38.614 2.816.395 2.816-.253M227.83 244.593c-8.113-1.276-16.39-2.807-16.666-3.083-.13-.13.595-.238 1.611-.24 3.004-.008 6.8-.568 6.8-1.006 0-.223-1.167-.406-2.594-.406s-2.594-.181-2.594-.403c0-.57 5.793-1.738 16.745-3.375 11.732-1.753 20.274-3.455 26.406-5.263 5.073-1.496 11.094-4.051 11.094-4.708 0-.22-.796-.403-1.769-.404s-2.405-.335-3.182-.74c-1.75-.912-6.378-4.454-6.348-4.857.012-.163 1.149-1.538 2.527-3.054l2.505-2.757 2.347 2.347c1.291 1.291 3.556 4.071 5.032 6.178s4.006 5.346 5.621 7.198c4.927 5.648 6.045 7.155 5.624 7.575-.221.222-5.162.585-10.979.807-11.66.445-10.567.204-21.661 4.789-4.63 1.913-5.276 2.055-9.906 2.17-3.132.077-7.033-.205-10.613-.768m-.786-2.79c.502-.318.47-.46-.156-.7-1.86-.714-4.605-.109-3.683.812.435.435 3.099.358 3.84-.111m37.579-7.133c.176-.286-.477-.472-1.651-.472-1.175 0-1.828.186-1.651.472.16.26.903.471 1.65.471.748 0 1.491-.212 1.652-.471m5.66-1.18c0-.56-1.895-.895-2.894-.512-.387.149-.564.496-.394.772.384.62 3.288.39 3.288-.26" style="fill:#d3d4d9;fill-opacity:1;stroke-width:.471698"/><path d="M184.796 225.535c-3.6-5.055-4.567-9.084-4.258-17.747.265-7.42 1.242-10.706 4.057-13.658 3.001-3.147 8.133-3.723 9.855-1.108.646.981.608 1.058-.656 1.326-2.117.448-2.661.885-4.056 3.26-2.847 4.846-3.181 6.776-3.181 18.387 0 5.83-.16 10.694-.354 10.809-.195.115-.828-.456-1.407-1.27M123.567 309.617l-3.048-1.625c-1.044-.558-1.631-.47-5.105.76-6.125 2.168-6.498 2.03-9.008-3.335-1.92-4.104-3.34-9.855-3.34-13.533 0-2.532.176-3.188 1.108-4.12 1.448-1.447 6.142-2.564 7.421-1.764 1.252.781 1.216.812 2.086-1.808 1.121-3.376 1.63-3.768 4.051-3.121 1.907.509 2.017.478 2.973-.843 2.565-3.542 2.685-3.616 6.656-4.099 3.169-.385 9.114-1.764 11.414-2.646.848-.326.801 2.24-.345 19.056-.707 10.36-1.142 14.318-1.662 15.112-.843 1.286-.675 1.275-3.869.268-2.42-.763-2.586-.763-3.015.003-.36.645-3.625 2.69-4.294 2.69-.085 0-.996-.447-2.023-.995zm-8.604-12.565c.264-1.02-.038-2.005-.616-2.005-.237 0-.432.637-.432 1.415 0 1.534.7 1.928 1.048.59" style="fill:#d3d4d9;fill-opacity:1;stroke-width:.471698"/><path d="M246.046 339.138c3.737-9.83 4.908-18.009 6.304-44.021.79-14.747 1.888-27.654 2.437-28.681.826-1.542 1.613-1.753 4.521-1.21 4.358.814 4.39.847 3.118 3.223-1.56 2.916-1.215 8.794.774 13.173 3.69 8.124 18.137 16.847 34.224 20.664 6.956 1.65 10.813 1.98 19.7 1.682 9.782-.329 11.675-.683 16.474-3.082l5.422-2.711 2.987 2.208c1.642 1.214 2.986 2.512 2.986 2.884 0 1.236-15.973 4.522-39.323 8.088-9.206 1.406-19.369 3.517-22.583 4.691-7.44 2.72-23.322 13.04-30.957 20.12-3.242 3.005-6.15 5.464-6.463 5.464s-.142-1.122.379-2.492" style="fill:#fff;fill-opacity:1;stroke-width:.960984" transform="scale(.75)"/></svg>