<svg xmlns="http://www.w3.org/2000/svg" width="210mm" height="297mm" viewBox="0 0 210 297"><path d="M99.262 242.894c-.047-.076.299-1.581.4-1.747.071-.113.126-.127.49-.127.297 0 .45-.027.55-.097.443-.308.569-.643 1.014-2.707.624-2.896.75-3.445.81-3.52.065-.081 2.053-.105 2.102-.025.03.05-1.082 5.256-1.273 5.953-.171.627-.567 1.41-.87 1.722a2.4 2.4 0 0 1-.583.418c-.312.146-.364.153-1.464.17-.738.012-1.152-.002-1.176-.04m25.47-3.037c-.47-.094-1.015-.34-1.297-.588-.114-.1-.291-.352-.393-.559-.171-.347-.187-.425-.205-1.034a5.2 5.2 0 0 1 .1-1.287c.478-2.498 1.36-3.665 3.097-4.094.663-.164 2.005-.177 2.563-.024 1.552.423 1.968 1.502 1.47 3.81-.065.304-.145.585-.177.624-.045.054-.6.07-2.42.07-2.654 0-2.524-.021-2.514.42.007.321.15.565.403.69.194.097.402.11 2.167.136l1.952.028-.004.226c-.004.2-.189 1.118-.303 1.5l-.042.141-2.004.01c-1.501.006-2.102-.01-2.393-.069zm3.394-4.81c.08-.323-.072-.729-.342-.906-.202-.132-.775-.197-1.174-.132-.559.09-.887.31-1.172.786-.245.409-.285.396 1.266.396h1.385zm-20.323 4.748c-1.16-.246-1.96-.992-2.27-2.114-.15-.544-.138-1.764.026-2.532.23-1.07.677-2.194 1.151-2.89a4.73 4.73 0 0 1 2.678-1.886c.646-.177 2.062-.18 2.696-.005.884.242 1.52.677 1.964 1.34.517.773.714 1.712.556 2.648-.109.646-.398 1.615-.804 2.697-.168.448-.292.836-.276.863.017.026.233.048.481.048.363 0 .458.018.487.091.041.109-.303 1.524-.416 1.706l-.078.127-2.9-.005c-2.335-.004-2.975-.02-3.295-.088zm3.588-1.99c.03-.056.254-.801.497-1.655.437-1.532.443-1.562.443-2.204 0-.615-.01-.667-.168-.953-.34-.614-1.073-.89-1.983-.745-1.17.187-1.832.934-2.244 2.533-.135.521-.174.799-.18 1.287-.011.759.095 1.123.42 1.448.337.337.569.383 1.96.388 1.103.004 1.205-.004 1.255-.099m5.609 2.02c-.406-.066-.971-.345-1.166-.575-.403-.477-.571-1.243-.475-2.167.046-.447.732-3.889.909-4.56.03-.114.094-.222.143-.24.049-.02.482-.035.963-.035.709 0 .88.016.906.082.017.045-.16 1.044-.395 2.221a98 98 0 0 0-.463 2.424c-.053.401.047.727.272.887.169.12.251.132 1.074.15.89.019.89.018.94-.114.028-.072.31-1.342.629-2.82.318-1.479.605-2.72.637-2.759.042-.051.306-.07.958-.07.76 0 .905.013.934.087.056.147-1.504 7.4-1.61 7.482-.108.084-3.743.09-4.256.007m13.43-.027c-.019-.05.137-.897.346-1.882.563-2.65 1.106-5.157 1.17-5.401l.056-.214 2.615.016c2.584.016 2.617.018 2.851.143.13.07.301.21.378.312.182.237.453 1.222.366 1.327-.048.058-.539.074-2.314.074-1.24 0-2.267.022-2.284.049-.04.063-.468 2.062-.858 3.997-.223 1.108-.333 1.547-.403 1.598-.067.05-.363.071-.992.071-.769 0-.901-.013-.93-.09m6.226.003c-.018-.048.062-.464.179-.923l.212-.835-.46-1.61c-.253-.887-.46-1.656-.46-1.71 0-.09.095-.098 1.102-.098 1.27 0 1.148-.06 1.303.651.054.25.117.487.14.53.046.085.13-.032 1.87-2.595a91 91 0 0 1 1.26-1.826l.164-.212h1.246c.974 0 1.24.016 1.22.07-.015.04-1.13 1.536-2.477 3.326-1.348 1.79-2.496 3.33-2.55 3.424-.056.093-.183.5-.282.905-.265 1.08-.14.99-1.386.99-.893 0-1.052-.013-1.08-.087m-33.916-5.738c-.072-.047-.06-.162.096-.855.1-.44.21-.836.246-.88.053-.063.273-.08 1.047-.08.592 0 .994.023 1.015.057.044.072-.297 1.649-.373 1.726-.075.075-1.921.105-2.031.032" style="fill:#00908e;stroke-width:.05659173;fill-opacity:1"/><path d="M116.403 192.319c-2.458-1.648-3.914-3.656-4.683-6.462-.342-1.249-.423-2.013-.423-3.98v-1.716l6.01.017 6.012.017v1.728c-.002 1.876-.069 2.57-.358 3.712q-.658 2.595-2.246 4.48c-.599.71-.808.914-1.575 1.533-.688.556-1.71 1.216-1.877 1.213-.029 0-.415-.245-.86-.542zm1.099-2.042c0-.509-.003-.518-.162-.518h-.161v-1.211c0-.667.02-1.678.046-2.247.06-1.373.122-.91.177 1.322.044 1.782.068 2.072.175 2.072.038 0 .278-.211.533-.469.53-.534.945-1.26 1.102-1.93.145-.612.13-1.665-.033-2.256a5.8 5.8 0 0 0-1.183-2.206c-.266-.308-.533-.654-.593-.77-.102-.197-.115-.203-.178-.088-.037.068-.296.367-.575.663-.605.641-1.007 1.4-1.22 2.305-.185.78-.158 1.924.06 2.553.226.652.61 1.24 1.18 1.81l.521.522.032.401c.039.505.058.564.18.564.08 0 .099-.096.099-.517" style="fill:#00908e;stroke-width:.06463604;fill-opacity:1"/><path d="M113.805 170.874a1.18 1.18 0 0 1-.738-.64l-.09-.19v-10.975l.09-.191c.116-.249.332-.466.575-.578l.195-.09h9.702l.19.093c.24.118.444.322.552.553l.085.18v11.04l-.085.18c-.108.231-.312.435-.553.553l-.189.093-4.803.006c-3.822.005-4.83-.002-4.931-.034m7.746-3.755c0-1.18-.013-1.983-.035-2.137-.113-.818-.634-1.41-1.428-1.626-.282-.077-1.06-.075-1.543.004-.283.046-.999.214-1.376.324l-.072.02v-3.601h-1.272v2.751c0 1.514.006 2.752.013 2.752s.247-.106.533-.234c1.013-.457 1.79-.69 2.633-.786.775-.089 1.149.056 1.24.48.022.106.034.809.034 2.053v1.89h1.273zm-5.009 1.249c.375-.336.682-.62.682-.63 0-.024-1.357-1.242-1.382-1.242-.01 0-.017.559-.017 1.241s.008 1.24.017 1.24.325-.274.7-.61m4.253-6.467c.11-.149.261-.382.334-.519.16-.299.348-.846.377-1.097l.022-.183h-1.273l-.02.127c-.065.405-.372 1.122-.678 1.582-.102.154-.197.298-.21.32-.02.03.109.04.61.04h.635z" style="fill:#00908e;stroke-width:.03181085;fill-opacity:1"/><path d="M114.171 291.274c-.399-.076-2.008-.378-3.574-.67-1.567-.294-2.856-.54-2.863-.548-.013-.012.009-.193.144-1.224.02-.145.094-.719.166-1.275.53-4.094.664-5.112.684-5.173.043-.134.081-.15 1.06-.449l.458-.14.033-.122c.42-1.548 1.167-2.588 2.077-2.887.187-.061.239-.069.484-.07.273-.003.277-.002.412.072.076.04.183.122.238.181.092.1.108.107.205.107.137 0 .336.053.475.127.061.033.191.139.289.236.19.19.322.396.448.704.04.097.074.178.076.18s.092-.025.2-.06c.112-.037.246-.065.308-.065h.11l.396.395.396.395.526.04c.396.028.536.046.567.071.03.026.052.117.095.397a4169 4169 0 0 1 .923 6.247l.089.594c.03.212.07.48.088.594l.088.594c.03.212.07.474.087.583.045.284.064.473.047.473-.008 0-.885.188-1.947.418s-1.96.417-1.995.416-.39-.065-.79-.14m-2.451-1.804c.789-.166 1.328-.826 1.403-1.717.056-.67-.13-1.152-.617-1.604a7 7 0 0 0-.458-.37c-.516-.386-.624-.514-.621-.739q.002-.344.34-.5c.134-.06.15-.063.468-.063.351.001.501.03.803.152l.13.053.06-.18c.032-.098.142-.42.243-.716.1-.296.183-.54.183-.544 0-.017-.177-.08-.334-.12-.464-.117-1.159-.087-1.646.071a2.27 2.27 0 0 0-1.517 1.592c-.136.53-.088 1.048.132 1.419.12.205.268.36.624.657.463.386.568.54.568.837a.48.48 0 0 1-.295.451c-.115.048-.336.043-.516-.012a3 3 0 0 1-.734-.386 1 1 0 0 0-.164-.113c-.003.004-.08.252-.171.551l-.165.545.119.114c.309.298.794.533 1.282.621.23.042.687.042.883.001m-.467-7.993c.27-.083.493-.156.499-.161.005-.005.04-.132.078-.28.223-.887.592-1.436 1.223-1.819.073-.044-.047-.086-.235-.081-.785.017-1.494.813-1.979 2.218-.09.262-.094.274-.081.274.004 0 .227-.068.496-.151m1.653-.507.614-.19c.024-.009.027-.06.015-.28-.027-.468-.115-.896-.186-.896-.06 0-.295.166-.44.313-.227.227-.389.498-.537.897-.097.265-.12.363-.079.347zm1.386-.432c.151-.046.279-.086.283-.09.015-.01-.048-.178-.142-.371-.114-.236-.28-.431-.429-.507-.09-.046-.174-.069-.174-.048l.055.248q.055.24.07.556c.01.213.022.311.038.305z" style="fill:#00908e;stroke-width:.02199809;fill-opacity:1"/><path d="M107.854 265.289a1.85 1.85 0 0 1-1.471-1.366c-.046-.173-.048-.374-.048-4.957 0-4.585.002-4.784.048-4.957a1.88 1.88 0 0 1 1.342-1.342c.173-.046.372-.048 4.957-.048 4.583 0 4.784.002 4.957.048.67.179 1.135.643 1.344 1.342.044.146.047.412.047 4.944 0 5.418.019 4.925-.211 5.374q-.359.699-1.18.94c-.145.043-.448.047-4.88.05-3.794.005-4.76-.001-4.905-.028m6.169-2.84a3.4 3.4 0 0 0 .865-.318c.215-.126.526-.44.62-.628.133-.265.19-.489.206-.805.039-.808-.265-1.427-.843-1.716a1.7 1.7 0 0 0-.332-.131c-.058-.01-.106-.026-.106-.035a.8.8 0 0 1 .174-.106c.209-.107.528-.415.632-.61.109-.206.173-.494.172-.78 0-.766-.339-1.26-1.044-1.53-.4-.153-.397-.152-2.451-.164l-1.886-.01v6.907l1.873-.01c1.777-.01 1.886-.013 2.12-.064m-2.784-.92-.002-1.076v-1.062l1.115-.007c.713-.005 1.174.003 1.278.02.391.067.634.233.783.536.082.167.084.18.084.507 0 .322-.003.341-.08.506-.15.315-.424.508-.795.562-.18.025-2.381.038-2.383.014zm-.008-3.966.004-.942 1.116.002c1.215.002 1.286.009 1.512.148.15.092.274.275.313.463.045.218.021.584-.049.741a.97.97 0 0 1-.451.442l-.158.073-1.146.008-1.145.008z" style="fill:#00908e;stroke-width:.02575016;fill-opacity:1"/><g style="fill:#00908e;fill-opacity:1"><path d="M-331.435-15.652c-13.582-7.681-24.815-14.08-24.964-14.217s3.948-2.683 9.102-5.655c7.269-4.192 9.514-5.334 10.01-5.093.352.171 7.409 4.04 15.681 8.598l15.042 8.287v11.027c0 6.066-.04 11.026-.088 11.023-.049-.002-11.2-6.29-24.783-13.97m29.104 3.082c0-8.292.106-10.976.441-11.242.502-.398 29.041-16.103 30.329-16.69.75-.341 1.813.18 9.887 4.846 4.975 2.875 9.079 5.387 9.119 5.58.057.28-49.09 28.4-49.633 28.4-.079 0-.143-4.903-.143-10.894m0-32.654c0-9.01.12-16.457.265-16.547s.265 7.283.265 16.383c0 9.101-.12 16.547-.265 16.547s-.265-7.372-.265-16.383m-57.855-17.69c0-16.942.133-29.435.312-29.368.172.065 4.299 2.42 9.171 5.233l8.86 5.115v19.085l.001 19.085-8.945 5.168c-4.92 2.843-9.047 5.17-9.172 5.17s-.227-13.27-.227-29.487m102.305 24.396-8.643-5.034-.09-19.24-.092-19.24 8.585-4.966c4.722-2.73 8.851-5.067 9.175-5.192.549-.21.59 1.845.59 29.269 0 23.375-.091 29.488-.44 29.465-.243-.015-4.33-2.293-9.085-5.062m-79.492-7.138c-.327-.327-.298-33.632.03-33.632.145 0 .264 7.62.264 16.933 0 9.314-.013 16.934-.03 16.934-.016 0-.135-.106-.264-.235m-11.348-45.312c-4.656-2.717-8.666-5.057-8.909-5.2-.272-.16 9.034-5.615 24.165-14.167a16177 16177 0 0 0 25.755-14.572l1.146-.664-.003 10.706-.003 10.706-16.53 9.084c-9.092 4.997-16.671 9.076-16.843 9.065-.17-.01-4.12-2.241-8.777-4.958zm62.971-4.14-16.404-9.061-.094-10.666c-.051-5.867-.032-10.667.042-10.667.206 0 50.81 28.619 51.14 28.922.281.258-17.336 10.617-17.963 10.562-.174-.016-7.699-4.106-16.721-9.09" style="fill:#00908e;stroke-width:.35277781;fill-opacity:1" transform="translate(148.072 216.21)scale(.1025)"/><path d="m-321.91-37.253-15.17-8.372-.09-16.655c-.051-9.16.015-16.655.146-16.655s7.038 3.923 15.35 8.718l15.11 8.717v16.33c0 8.981-.04 16.32-.088 16.31-.049-.011-6.914-3.788-15.258-8.393m20.017-8.155.092-16.293 15.169-8.768 15.17-8.768.091 16.622c.05 9.142-.029 16.732-.176 16.866-.335.303-29.187 16.154-29.91 16.431-.465.179-.517-1.745-.436-16.09m-17.782-28.87c-8.279-4.793-15.137-8.8-15.241-8.903-.179-.178 29.415-16.622 30.329-16.852.235-.06 7.28 3.655 15.654 8.254 12.111 6.65 15.13 8.447 14.76 8.782-.55.498-29.15 16.989-29.921 17.253-.297.101-7.146-3.65-15.581-8.534" style="fill:#00908e;stroke-width:.35277781;fill-opacity:1" transform="translate(148.072 216.21)scale(.1025)"/></g><path d="M115.764 116.789c.17-.078.404-.26.52-.405.137-.172.874-1.982 2.107-5.177 1.666-4.316 1.93-4.946 2.168-5.187.148-.15.27-.326.27-.389 0-.498-1.808-1.404-2.802-1.404-.49 0-.581.092-.581.591 0 .391-.2.951-1.923 5.392-1.803 4.646-1.92 4.98-1.892 5.353.08 1.025 1.18 1.658 2.133 1.226m-1.335-.34a1.21 1.21 0 0 1-.517-1.016c0-.228.519-1.653 1.924-5.29 1.672-4.323 1.92-5.018 1.89-5.29-.042-.377.03-.412.65-.315a4.6 4.6 0 0 1 1.622.609c.589.356.622.444.295.788-.234.246-.522.935-2.128 5.096-1.022 2.646-1.916 4.913-1.988 5.037-.33.571-1.191.759-1.748.38m1.21-.165c.114-.068.26-.212.323-.32s.578-1.398 1.144-2.866a1587 1587 0 0 1 1.316-3.402c.157-.403.269-.733.249-.733s-.207.153-.414.339a1.9 1.9 0 0 1-.8.455c-1.39.382-1.37.356-2.45 3.145-1.016 2.626-1.039 2.751-.577 3.213.256.256.335.292.646.292.195 0 .448-.056.563-.123m.43-1.955c-.06-.06.009-.178.103-.178.04 0 .071.05.071.113 0 .116-.089.15-.173.065m-.677-1.129c-.106-.106-.046-.252.105-.252q.157-.001.131.125c-.027.139-.155.208-.236.127m.415-.493c-.21-.21-.006-.566.275-.477.19.06.256.24.158.423-.087.163-.298.19-.433.054m1.164-1.01c-.106-.107-.046-.253.105-.253q.157 0 .131.126c-.027.138-.155.207-.236.127m-.683-.842c-.026-.042-.01-.1.034-.127.116-.072.19.026.094.123q-.08.08-.128.004m3.748-5.269c.12-.195-.896-.734-1.527-.808-.325-.039-.386-.027-.386.076 0 .346 1.74 1.012 1.913.732" style="fill:#00908e;stroke-width:.07518506;fill-opacity:1"/><g style="fill:#00908e;fill-opacity:1" transform="translate(84.516 166.775)scale(.108)"><circle cx="292.126" cy="-301.55" r="27.395" style="opacity:1;fill:#00908e;fill-opacity:1;stroke:none;stroke-width:6.11940336;stroke-miterlimit:4;stroke-dasharray:none;stroke-dashoffset:0;stroke-opacity:1"/><g style="fill:#00908e;fill-opacity:1"><circle cx="256.044" cy="-238.742" r="27.395" style="opacity:1;fill:#00908e;fill-opacity:1;stroke:none;stroke-width:6.11940336;stroke-miterlimit:4;stroke-dasharray:none;stroke-dashoffset:0;stroke-opacity:1"/><circle cx="328.207" cy="-238.742" r="27.395" style="opacity:1;fill:#00908e;fill-opacity:1;stroke:none;stroke-width:6.11940336;stroke-miterlimit:4;stroke-dasharray:none;stroke-dashoffset:0;stroke-opacity:1"/></g></g><path d="M114.318 86.837c-2.331-.167-4.566-1.492-5.764-3.417a8 8 0 0 1-.472-.928l-.037-.1.068-.202c.066-.194.069-.214.065-.502a2 2 0 0 1 .017-.353c.039-.1.158-.211.293-.273.228-.103.344-.238.402-.469a.59.59 0 0 1 .464-.423c.216-.032.531.075.724.246.148.132.22.258.37.65.463 1.217.973 1.94 1.722 2.443.646.434 1.53.67 2.506.67a4.5 4.5 0 0 0 2.703-.9c.169-.128.512-.463.66-.645.74-.905 1.042-2.122.802-3.23-.246-1.136-1.108-2.114-2.176-2.471a2 2 0 0 0-.89-.098c-.472.044-.81.139-1.18.33-.877.456-1.463 1.3-1.602 2.304-.036.26-.074.363-.183.483-.186.207-.138.199-1.173.206-.498.004-.954.001-1.014-.007a.37.37 0 0 1-.299-.197c-.05-.092-.05-.092-.025-.4.126-1.527.696-2.82 1.674-3.8.941-.943 2.147-1.477 3.586-1.588 1.25-.096 2.422.217 3.502.937 1.318.878 2.28 2.282 2.609 3.807a6.34 6.34 0 0 1-.15 3.16c-.415 1.372-1.347 2.641-2.56 3.484a7.3 7.3 0 0 1-3.075 1.21 8 8 0 0 1-1.567.073z" style="fill:#00908e;fill-opacity:1;stroke-width:.0210335"/></svg>