<?xml version="1.0" encoding="UTF-8" standalone="no"?>
<!-- Created with Inkscape (http://www.inkscape.org/) -->

<svg
   xmlns:dc="http://purl.org/dc/elements/1.1/"
   xmlns:cc="http://creativecommons.org/ns#"
   xmlns:rdf="http://www.w3.org/1999/02/22-rdf-syntax-ns#"
   xmlns:svg="http://www.w3.org/2000/svg"
   xmlns="http://www.w3.org/2000/svg"
   xmlns:sodipodi="http://sodipodi.sourceforge.net/DTD/sodipodi-0.dtd"
   xmlns:inkscape="http://www.inkscape.org/namespaces/inkscape"
   width="264.58334mm"
   height="264.58334mm"
   viewBox="0 0 264.58334 264.58334"
   version="1.1"
   id="svg83329"
   inkscape:version="0.92.3 (2405546, 2018-03-11)"
   sodipodi:docname="logo.svg"
   inkscape:export-filename="I:\01-NICOLAS\Dropbox\productlearn\images\HD\logo.png"
   inkscape:export-xdpi="150"
   inkscape:export-ydpi="150">
  <defs
     id="defs83323" />
  <sodipodi:namedview
     id="base"
     pagecolor="#ffffff"
     bordercolor="#666666"
     borderopacity="1.0"
     inkscape:pageopacity="0.0"
     inkscape:pageshadow="2"
     inkscape:zoom="0.35"
     inkscape:cx="-208.57143"
     inkscape:cy="694.28575"
     inkscape:document-units="mm"
     inkscape:current-layer="layer1"
     showgrid="false"
     fit-margin-top="0"
     fit-margin-left="0"
     fit-margin-right="0"
     fit-margin-bottom="0"
     inkscape:window-width="1440"
     inkscape:window-height="1042"
     inkscape:window-x="1995"
     inkscape:window-y="0"
     inkscape:window-maximized="0" />
  <metadata
     id="metadata83326">
    <rdf:RDF>
      <cc:Work
         rdf:about="">
        <dc:format>image/svg+xml</dc:format>
        <dc:type
           rdf:resource="http://purl.org/dc/dcmitype/StillImage" />
        <dc:title />
      </cc:Work>
    </rdf:RDF>
  </metadata>
  <g
     inkscape:label="Calque 1"
     inkscape:groupmode="layer"
     id="layer1"
     transform="translate(99.785713,-67.946426)">
    <rect
       style="opacity:1;fill:#12ac8e;fill-opacity:1;stroke:none;stroke-width:1.81347144;stroke-miterlimit:4;stroke-dasharray:none;stroke-dashoffset:0;stroke-opacity:1"
       id="rect83418"
       width="264.58334"
       height="264.58334"
       x="-99.785713"
       y="67.946426"
       ry="1.619498e-006" />
    <g
       id="g66"
       transform="translate(1.627524,-10.894286)">
      <g
         style="fill:#ffffff"
         transform="matrix(0.6935284,0,0,0.6935284,-25.441612,126.63891)"
         id="g83416">
        <g
           style="fill:#ffffff"
           id="g83351">
          <g
             style="fill:#ffffff"
             id="g83349">
            <g
               style="fill:#ffffff"
               id="g83347">
              <path
                 style="fill:#ffffff"
                 inkscape:connector-curvature="0"
                 d="m 163.451,70.046 -32.35,-20.847 c -0.253,-0.161 -0.532,-0.222 -0.804,-0.312 v -7.19 c 0,-1.92 -1.554,-3.475 -3.475,-3.475 H 113.92 L 86.97,21.378 c -1.126,-0.706 -2.558,-0.706 -3.685,0 L 56.335,38.222 H 39.958 c -1.92,0 -3.475,1.554 -3.475,3.475 v 7.188 c -0.272,0.09 -0.552,0.152 -0.804,0.314 L 3.329,70.046 c -0.991,0.641 -1.592,1.741 -1.592,2.921 v 90.339 c 0,1.92 1.554,3.475 3.475,3.475 h 156.356 c 1.92,0 3.475,-1.554 3.475,-3.475 V 72.968 c 0,-1.181 -0.601,-2.28 -1.592,-2.922 z M 85.128,28.423 100.809,38.222 H 69.447 Z M 43.433,45.171 h 79.915 v 78.178 c 0,0.01 0.006,0.018 0.006,0.029 L 111.6,130.515 83.316,115.088 c -1.055,-0.57 -2.338,-0.567 -3.386,0.034 l -25.81,14.749 -10.692,-6.492 c 0,-0.01 0.006,-0.018 0.006,-0.028 z M 8.687,74.861 36.483,56.951 v 62.212 L 8.687,102.285 Z m 0,35.551 38.537,23.397 -38.537,22.022 z m 7.002,49.421 66.005,-37.715 69.145,37.715 z m 142.405,-3.959 -39.444,-21.514 39.444,-23.949 z m 0,-53.589 -27.797,16.877 V 56.951 l 27.797,17.911 z"
                 id="path83331" />
              <path
                 style="fill:#ffffff"
                 inkscape:connector-curvature="0"
                 d="m 57.331,79.917 h 41.695 c 1.92,0 3.475,-1.554 3.475,-3.475 V 55.595 c 0,-1.92 -1.554,-3.475 -3.475,-3.475 H 57.331 c -1.92,0 -3.475,1.554 -3.475,3.475 v 20.847 c 0,1.921 1.555,3.475 3.475,3.475 z M 60.805,59.069 H 95.551 V 72.967 H 60.805 Z"
                 id="path83333" />
              <rect
                 style="fill:#ffffff"
                 x="53.855999"
                 y="86.865997"
                 width="55.592999"
                 height="6.9489999"
                 id="rect83335" />
              <rect
                 style="fill:#ffffff"
                 x="53.855999"
                 y="100.765"
                 width="55.592999"
                 height="6.9489999"
                 id="rect83337" />
              <path
                 style="fill:#ffffff"
                 inkscape:connector-curvature="0"
                 d="m 147.67,41.697 c 0.889,0 1.778,-0.339 2.457,-1.018 L 162.41,28.396 c 1.357,-1.357 1.357,-3.556 0,-4.913 -1.357,-1.358 -3.556,-1.357 -4.913,0 l -12.283,12.283 c -1.357,1.357 -1.357,3.556 0,4.913 0.678,0.679 1.567,1.018 2.456,1.018 z"
                 id="path83339" />
              <path
                 style="fill:#ffffff"
                 inkscape:connector-curvature="0"
                 d="m 16.654,40.679 c 0.679,0.679 1.568,1.018 2.457,1.018 0.889,0 1.778,-0.339 2.457,-1.018 1.357,-1.357 1.357,-3.556 0,-4.913 L 9.284,23.483 c -1.357,-1.357 -3.556,-1.357 -4.913,0 -1.357,1.357 -1.357,3.556 0,4.913 z"
                 id="path83341" />
              <path
                 style="fill:#ffffff"
                 inkscape:connector-curvature="0"
                 d="m 118.584,24.076 c 0.421,0.17 0.859,0.247 1.289,0.247 1.378,0 2.684,-0.825 3.227,-2.185 l 6.949,-17.373 c 0.713,-1.781 -0.156,-3.804 -1.937,-4.516 -1.764,-0.709 -3.804,0.149 -4.516,1.937 l -6.949,17.373 c -0.713,1.782 0.155,3.805 1.937,4.517 z"
                 id="path83343" />
              <path
                 style="fill:#ffffff"
                 inkscape:connector-curvature="0"
                 d="m 47.155,22.139 c 0.543,1.361 1.849,2.185 3.227,2.185 0.431,0 0.869,-0.078 1.289,-0.248 1.781,-0.713 2.65,-2.735 1.937,-4.516 L 46.659,2.187 C 45.946,0.399 43.911,-0.46 42.143,0.25 40.362,0.963 39.493,2.985 40.206,4.766 Z"
                 id="path83345" />
            </g>
          </g>
        </g>
        <g
           style="fill:#ffffff"
           id="g83353" />
        <g
           style="fill:#ffffff"
           id="g83355" />
        <g
           style="fill:#ffffff"
           id="g83357" />
        <g
           style="fill:#ffffff"
           id="g83359" />
        <g
           style="fill:#ffffff"
           id="g83361" />
        <g
           style="fill:#ffffff"
           id="g83363" />
        <g
           style="fill:#ffffff"
           id="g83365" />
        <g
           style="fill:#ffffff"
           id="g83367" />
        <g
           style="fill:#ffffff"
           id="g83369" />
        <g
           style="fill:#ffffff"
           id="g83371" />
        <g
           style="fill:#ffffff"
           id="g83373" />
        <g
           style="fill:#ffffff"
           id="g83375" />
        <g
           style="fill:#ffffff"
           id="g83377" />
        <g
           style="fill:#ffffff"
           id="g83379" />
        <g
           style="fill:#ffffff"
           id="g83381" />
      </g>
      <text
         id="text84227"
         y="295.32217"
         x="-67.115295"
         style="font-style:normal;font-weight:normal;font-size:25.27978516px;line-height:12.18846798px;font-family:sans-serif;letter-spacing:0px;word-spacing:0px;fill:#ffffff;fill-opacity:1;stroke:none;stroke-width:1.35427415px;stroke-linecap:butt;stroke-linejoin:miter;stroke-opacity:1"
         xml:space="preserve"><tspan
           style="font-style:normal;font-variant:normal;font-weight:normal;font-stretch:normal;font-family:'Gotham Rounded';-inkscape-font-specification:'Gotham Rounded';fill:#ffffff;stroke-width:1.35427415px"
           y="295.32217"
           x="-67.115295"
           id="tspan84225"
           sodipodi:role="line">Productlearn.io</tspan></text>
    </g>
  </g>
</svg>
