<?xml version="1.0" encoding="UTF-8" standalone="no"?>
<!-- Created with Inkscape (http://www.inkscape.org/) -->

<svg
   xmlns:dc="http://purl.org/dc/elements/1.1/"
   xmlns:cc="http://creativecommons.org/ns#"
   xmlns:rdf="http://www.w3.org/1999/02/22-rdf-syntax-ns#"
   xmlns:svg="http://www.w3.org/2000/svg"
   xmlns="http://www.w3.org/2000/svg"
   xmlns:sodipodi="http://sodipodi.sourceforge.net/DTD/sodipodi-0.dtd"
   xmlns:inkscape="http://www.inkscape.org/namespaces/inkscape"
   width="210mm"
   height="297mm"
   viewBox="0 0 210 297"
   version="1.1"
   id="svg8"
   inkscape:version="0.92.3 (2405546, 2018-03-11)"
   sodipodi:docname="technologies-icon.svg">
  <defs
     id="defs2" />
  <sodipodi:namedview
     id="base"
     pagecolor="#ffffff"
     bordercolor="#666666"
     borderopacity="1.0"
     inkscape:pageopacity="0.0"
     inkscape:pageshadow="2"
     inkscape:zoom="0.35"
     inkscape:cx="660.15537"
     inkscape:cy="429.50048"
     inkscape:document-units="mm"
     inkscape:current-layer="layer1"
     showgrid="false"
     inkscape:window-width="1920"
     inkscape:window-height="1018"
     inkscape:window-x="-8"
     inkscape:window-y="32"
     inkscape:window-maximized="1" />
  <metadata
     id="metadata5">
    <rdf:RDF>
      <cc:Work
         rdf:about="">
        <dc:format>image/svg+xml</dc:format>
        <dc:type
           rdf:resource="http://purl.org/dc/dcmitype/StillImage" />
        <dc:title></dc:title>
      </cc:Work>
    </rdf:RDF>
  </metadata>
  <g
     inkscape:label="Calque 1"
     inkscape:groupmode="layer"
     id="layer1">
    <path
       style="fill:#00908e;stroke-width:0.05659173;fill-opacity:1"
       d="m 99.262263,242.89428 c -0.047,-0.076 0.2983,-1.58178 0.4006,-1.74686 0.0701,-0.1131 0.12482,-0.12734 0.489457,-0.12734 0.2962,0 0.44951,-0.0271 0.55046,-0.0973 0.44263,-0.30778 0.56791,-0.64252 1.01303,-2.70681 0.62442,-2.89574 0.75089,-3.44498 0.81055,-3.52002 0.0646,-0.0812 2.05216,-0.10449 2.10155,-0.0246 0.0309,0.05 -1.08202,5.25576 -1.27257,5.95255 -0.17137,0.62667 -0.56752,1.41029 -0.87062,1.72215 -0.14238,0.1465 -0.40455,0.33464 -0.5826,0.41809 -0.3122,0.14633 -0.36431,0.15238 -1.46383,0.16998 -0.738727,0.0118 -1.152747,-0.002 -1.176027,-0.0399 z m 25.470067,-3.03687 c -0.47089,-0.094 -1.01527,-0.34089 -1.2969,-0.58817 -0.1146,-0.10063 -0.29166,-0.35211 -0.39346,-0.55885 -0.17112,-0.34754 -0.18658,-0.42556 -0.20496,-1.03416 -0.0152,-0.50197 0.009,-0.80766 0.1005,-1.28745 0.47795,-2.49813 1.36013,-3.6645 3.09628,-4.09373 0.66329,-0.16398 2.00513,-0.1768 2.56312,-0.0245 1.55207,0.42368 1.96828,1.50218 1.4704,3.81004 -0.0657,0.30449 -0.14549,0.58544 -0.17732,0.62435 -0.0446,0.0545 -0.59908,0.0707 -2.42088,0.0707 -2.65306,0 -2.52303,-0.0217 -2.51311,0.41901 0.007,0.32135 0.1493,0.56522 0.40258,0.69105 0.19404,0.0964 0.40262,0.10939 2.16712,0.13496 l 1.95242,0.0283 -0.004,0.22637 c -0.004,0.20057 -0.18865,1.1172 -0.30265,1.49968 l -0.0422,0.14148 -2.0043,0.009 c -1.50141,0.007 -2.10172,-0.0103 -2.39253,-0.0683 z m 3.39341,-4.81082 c 0.0811,-0.32309 -0.072,-0.72848 -0.34186,-0.9053 -0.20191,-0.13229 -0.7744,-0.19688 -1.17429,-0.13248 -0.55828,0.0899 -0.88633,0.31 -1.1718,0.78619 -0.24489,0.4085 -0.2844,0.39614 1.26625,0.39614 h 1.38542 z m -20.32226,4.74836 c -1.16009,-0.24619 -1.96089,-0.9916 -2.27085,-2.11378 -0.15044,-0.54465 -0.13755,-1.76375 0.0268,-2.53242 0.22874,-1.06989 0.67648,-2.19396 1.15094,-2.88946 0.62728,-0.91951 1.56881,-1.58291 2.6777,-1.8867 0.64574,-0.17691 2.06143,-0.17962 2.69623,-0.005 0.88369,0.24286 1.51975,0.67712 1.96346,1.34053 0.51713,0.77317 0.7145,1.71228 0.55646,2.6477 -0.1092,0.64635 -0.39824,1.61548 -0.8043,2.6968 -0.1682,0.4479 -0.29228,0.83626 -0.27575,0.86302 0.0165,0.0267 0.2331,0.0486 0.48124,0.0486 0.36227,0 0.45805,0.0179 0.48609,0.091 0.0416,0.10847 -0.30287,1.52335 -0.41533,1.70581 l -0.0785,0.12733 -2.89902,-0.005 c -2.33533,-0.004 -2.97605,-0.021 -3.29517,-0.0887 z m 3.58781,-1.98982 c 0.0302,-0.0563 0.25385,-0.80121 0.49713,-1.65531 0.43631,-1.53184 0.44231,-1.56172 0.44235,-2.2037 5e-5,-0.61548 -0.009,-0.66723 -0.16758,-0.95346 -0.34018,-0.61414 -1.07359,-0.88948 -1.98285,-0.74438 -1.17084,0.18684 -1.8327,0.93352 -2.24464,2.5323 -0.13446,0.52188 -0.17327,0.79935 -0.1801,1.28773 -0.0106,0.75849 0.095,1.12236 0.42012,1.44748 0.33747,0.33746 0.56885,0.38324 1.96018,0.38781 1.1029,0.004 1.20505,-0.004 1.25539,-0.0985 z m 5.60835,2.01942 c -0.40525,-0.0657 -0.9711,-0.34474 -1.16568,-0.57478 -0.40308,-0.47656 -0.57093,-1.24228 -0.47504,-2.16706 0.0464,-0.44698 0.73207,-3.88824 0.90859,-4.55971 0.0299,-0.11352 0.0943,-0.22175 0.14316,-0.24052 0.0489,-0.0188 0.48235,-0.0341 0.96322,-0.0341 0.7091,0 0.88024,0.0154 0.90562,0.0815 0.0172,0.0449 -0.16045,1.04441 -0.3948,2.22123 -0.23435,1.17682 -0.44275,2.26765 -0.46311,2.42406 -0.0522,0.40122 0.0478,0.72663 0.27271,0.88704 0.16849,0.12019 0.25089,0.13164 1.07334,0.14929 0.88966,0.0191 0.89089,0.0189 0.94059,-0.11318 0.0274,-0.0728 0.31022,-1.34195 0.62855,-2.82041 0.31833,-1.47845 0.60487,-2.71993 0.63675,-2.75884 0.042,-0.0512 0.30668,-0.0707 0.95829,-0.0707 0.7604,0 0.90554,0.0136 0.93392,0.0876 0.0563,0.14668 -1.50358,7.39945 -1.60907,7.48156 -0.10833,0.0843 -3.74343,0.0903 -4.25704,0.007 z m 13.43055,-0.0268 c -0.0191,-0.0498 0.13651,-0.89653 0.3458,-1.88167 0.563,-2.65007 1.10608,-5.15739 1.16986,-5.40103 l 0.0561,-0.21435 2.61461,0.0163 c 2.5846,0.0161 2.61734,0.0177 2.85185,0.14309 0.13048,0.0697 0.30062,0.2099 0.37808,0.31146 0.18117,0.23753 0.45238,1.22288 0.36542,1.32766 -0.0479,0.0578 -0.53858,0.0733 -2.31423,0.0733 -1.23937,0 -2.26704,0.0221 -2.28371,0.049 -0.0394,0.0638 -0.46833,2.06283 -0.85761,3.99727 -0.22309,1.10854 -0.33372,1.54739 -0.40304,1.59871 -0.067,0.0496 -0.36353,0.0707 -0.99198,0.0707 -0.76934,0 -0.90135,-0.0128 -0.93116,-0.0905 z m 6.22619,0.003 c -0.0185,-0.0482 0.0618,-0.46343 0.17843,-0.92274 l 0.21206,-0.83511 -0.45961,-1.6108 c -0.25279,-0.88594 -0.45961,-1.65488 -0.45961,-1.70877 0,-0.0895 0.0947,-0.098 1.10154,-0.098 1.26904,0 1.14774,-0.0606 1.3024,0.6508 0.0541,0.24901 0.11729,0.48732 0.14037,0.52959 0.0465,0.0852 0.13093,-0.0319 1.87069,-2.59518 0.60208,-0.88708 1.16866,-1.70837 1.25907,-1.82508 l 0.16438,-0.21222 h 1.24632 c 0.97385,0 1.24037,0.0154 1.2191,0.0707 -0.015,0.0389 -1.12963,1.53506 -2.47702,3.32477 -1.34738,1.78971 -2.49504,3.33042 -2.55035,3.4238 -0.0553,0.0934 -0.18174,0.50083 -0.28097,0.90547 -0.26483,1.07998 -0.13942,0.99035 -1.38575,0.99035 -0.89344,0 -1.05236,-0.0129 -1.08105,-0.0876 z m -33.91647,-5.73732 c -0.0723,-0.0475 -0.0593,-0.16271 0.0965,-0.85535 0.099,-0.44026 0.20972,-0.83631 0.24606,-0.88009 0.0521,-0.0628 0.27291,-0.0796 1.04615,-0.0796 0.59258,0 0.99392,0.0224 1.01508,0.0566 0.0443,0.0718 -0.29654,1.64899 -0.37295,1.72561 -0.0751,0.0753 -1.92075,0.10515 -2.03083,0.0328 z"
       id="path170"
       inkscape:connector-curvature="0"
       inkscape:export-filename="I:\01-NICOLAS\Dropbox\nicolasjouanno-index\assets\public\images\technologies\Jquery.png"
       inkscape:export-xdpi="91"
       inkscape:export-ydpi="91" />
    <path
       style="fill:#00908e;stroke-width:0.06463604;fill-opacity:1"
       d="m 116.403,192.31857 c -2.45806,-1.64709 -3.91364,-3.65567 -4.68271,-6.46177 -0.34223,-1.24871 -0.42353,-2.01277 -0.42354,-3.98038 l 0,-1.71545 6.01115,0.0168 6.01117,0.0168 -10e-4,1.72835 c -0.001,1.87614 -0.0681,2.57035 -0.35726,3.71183 -0.4382,1.72979 -1.18757,3.22473 -2.24578,4.48013 -0.59901,0.71063 -0.80843,0.91452 -1.57512,1.5335 -0.68763,0.55515 -1.71029,1.21575 -1.87708,1.21253 -0.0284,-4.6e-4 -0.41527,-0.24462 -0.85964,-0.54239 z m 1.09882,-2.04205 c 0,-0.50847 -0.003,-0.51709 -0.16159,-0.51709 h -0.16159 l 1.9e-4,-1.21193 c 1.3e-4,-0.66656 0.0207,-1.67731 0.0458,-2.2461 0.0606,-1.37334 0.12271,-0.91037 0.17749,1.32209 0.0437,1.78107 0.0682,2.0713 0.17452,2.0713 0.0379,0 0.27803,-0.21087 0.53349,-0.46861 0.52944,-0.53414 0.94447,-1.26096 1.10225,-1.93029 0.14421,-0.61177 0.12868,-1.66515 -0.0332,-2.25619 -0.216,-0.7884 -0.64004,-1.57906 -1.183,-2.20587 -0.2663,-0.30742 -0.53342,-0.65417 -0.59361,-0.77055 -0.10124,-0.19579 -0.1145,-0.20233 -0.17729,-0.0874 -0.0373,0.0683 -0.29638,0.36672 -0.57567,0.66315 -0.60438,0.64144 -1.00639,1.40076 -1.22025,2.3048 -0.18437,0.77944 -0.15695,1.9238 0.0612,2.55335 0.2259,0.65193 0.60877,1.23973 1.17874,1.80971 l 0.52206,0.52206 0.0312,0.40154 c 0.0392,0.50425 0.058,0.56313 0.18031,0.56313 0.0806,0 0.099,-0.0958 0.099,-0.51708 z"
       id="path162"
       inkscape:connector-curvature="0"
       inkscape:export-filename="I:\01-NICOLAS\Dropbox\nicolasjouanno-index\assets\public\images\technologies\mongodb.png"
       inkscape:export-xdpi="91"
       inkscape:export-ydpi="91" />
    <path
       style="fill:#00908e;stroke-width:0.03181085;fill-opacity:1"
       d="m 113.80484,170.87379 c -0.3425,-0.1093 -0.59098,-0.32465 -0.73799,-0.63959 l -0.0891,-0.19086 v -5.48737 -5.48737 l 0.0891,-0.19087 c 0.11592,-0.24846 0.33223,-0.46579 0.57546,-0.5782 l 0.19438,-0.0898 h 4.85115 4.85116 l 0.18913,0.0929 c 0.24087,0.11826 0.44483,0.32222 0.55301,0.553 l 0.0849,0.18121 v 5.51919 5.51918 l -0.0849,0.18121 c -0.10818,0.23078 -0.31214,0.43474 -0.55301,0.55301 l -0.18913,0.0929 -4.80344,0.006 c -3.82175,0.005 -4.82945,-0.002 -4.93068,-0.0345 z m 7.74594,-3.75475 c 0,-1.17929 -0.0129,-1.98331 -0.0343,-2.13731 -0.1137,-0.81746 -0.63454,-1.41015 -1.42896,-1.62609 -0.28191,-0.0766 -1.05974,-0.0747 -1.54283,0.004 -0.28264,0.0459 -0.99831,0.21461 -1.37582,0.32429 l -0.0716,0.0208 v -1.80103 -1.80102 h -0.63622 -0.63621 v 2.75164 c 0,1.5134 0.006,2.75164 0.0134,2.75164 0.007,0 0.24717,-0.10548 0.53283,-0.2344 1.01262,-0.45701 1.78979,-0.68883 2.63328,-0.78548 0.77505,-0.0888 1.14837,0.0557 1.23931,0.47973 0.0228,0.10625 0.0346,0.80886 0.0346,2.05273 v 1.89118 h 0.63621 0.63622 z m -5.00879,1.24855 c 0.37539,-0.33555 0.68251,-0.61919 0.68251,-0.63032 0,-0.023 -1.35723,-1.24084 -1.38292,-1.24084 -0.009,0 -0.0168,0.55828 -0.0168,1.24062 0,0.68234 0.008,1.24063 0.0173,1.24063 0.01,0 0.32446,-0.27454 0.69984,-0.61009 z m 4.25258,-6.46707 c 0.1113,-0.14829 0.26193,-0.38144 0.33475,-0.5181 0.15942,-0.29919 0.3475,-0.84685 0.37698,-1.09768 l 0.0214,-0.18229 h -0.63653 -0.63653 l -0.0202,0.12633 c -0.0648,0.40551 -0.37168,1.12263 -0.67704,1.58234 -0.10211,0.15373 -0.19712,0.2974 -0.21111,0.31927 -0.02,0.0313 0.10931,0.0398 0.61022,0.0398 h 0.63568 z"
       id="path160"
       inkscape:connector-curvature="0"
       inkscape:export-filename="I:\01-NICOLAS\Dropbox\nicolasjouanno-index\assets\public\images\technologies\heroku.png"
       inkscape:export-xdpi="91"
       inkscape:export-ydpi="91" />
    <g
       id="g136" />
    <path
       style="fill:#00908e;stroke-width:0.02199809;fill-opacity:1"
       d="m 114.17123,291.27441 c -0.39927,-0.076 -2.00788,-0.37808 -3.57469,-0.67127 -1.56681,-0.29319 -2.8551,-0.53932 -2.86286,-0.54695 -0.0125,-0.0123 0.009,-0.19351 0.14482,-1.22377 0.0191,-0.14519 0.0937,-0.71934 0.16574,-1.27589 0.52965,-4.09395 0.66424,-5.11197 0.68382,-5.17239 0.0434,-0.13384 0.081,-0.14978 1.06066,-0.44896 l 0.45708,-0.13959 0.0331,-0.12227 c 0.41946,-1.54854 1.16753,-2.58837 2.07691,-2.88693 0.18695,-0.0614 0.23918,-0.069 0.48451,-0.0709 0.27251,-0.002 0.27621,-10e-4 0.41218,0.0722 0.0755,0.0409 0.18228,0.1226 0.23736,0.18149 0.0926,0.099 0.10803,0.10708 0.20465,0.10708 0.13738,0 0.33632,0.053 0.47505,0.1267 0.0614,0.0326 0.19145,0.13868 0.289,0.23575 0.1911,0.19018 0.32263,0.39673 0.44859,0.70445 0.0396,0.0968 0.0736,0.17786 0.0755,0.18016 0.002,0.002 0.0923,-0.0249 0.20081,-0.0605 0.11168,-0.0366 0.24505,-0.0647 0.30726,-0.0647 h 0.10992 l 0.39618,0.39515 0.39618,0.39516 0.52609,0.0387 c 0.39544,0.0291 0.53611,0.0471 0.56647,0.0723 0.0311,0.0259 0.0529,0.11663 0.095,0.39656 0.0642,0.42646 0.65052,4.3946 0.7931,5.36753 0.0541,0.36902 0.11292,0.76498 0.13075,0.87992 0.0178,0.11494 0.0576,0.38222 0.0884,0.59395 0.0308,0.21173 0.0704,0.47901 0.088,0.59395 0.0176,0.11494 0.0572,0.38222 0.0879,0.59395 0.0307,0.21173 0.07,0.47405 0.0874,0.58295 0.0451,0.28357 0.0637,0.47296 0.0464,0.47296 -0.008,0 -0.88404,0.18808 -1.94625,0.41796 -1.06222,0.22988 -1.96006,0.41693 -1.99521,0.41567 -0.0352,-10e-4 -0.39058,-0.0645 -0.78985,-0.14049 z m -2.45127,-1.80437 c 0.78876,-0.16592 1.32787,-0.82609 1.40255,-1.71749 0.0561,-0.67001 -0.12914,-1.15186 -0.61659,-1.60365 -0.0883,-0.0818 -0.29417,-0.2485 -0.45751,-0.37038 -0.51608,-0.38511 -0.62394,-0.51317 -0.62182,-0.7383 0.002,-0.23099 0.11399,-0.39494 0.34076,-0.49966 0.13317,-0.0615 0.1498,-0.0637 0.46805,-0.0632 0.35079,6.4e-4 0.50096,0.029 0.80262,0.15156 l 0.13002,0.0528 0.0594,-0.17948 c 0.0327,-0.0987 0.14207,-0.42116 0.24312,-0.71653 0.10104,-0.29538 0.18371,-0.54025 0.18371,-0.54416 0,-0.0166 -0.17755,-0.0802 -0.33408,-0.11957 -0.46453,-0.11685 -1.15872,-0.0868 -1.64575,0.0712 -0.75787,0.24588 -1.3261,0.84176 -1.51793,1.59179 -0.13541,0.52947 -0.0872,1.0476 0.13209,1.41864 0.12112,0.20496 0.26811,0.35962 0.62481,0.65744 0.46263,0.38626 0.56745,0.54078 0.56745,0.83649 0,0.20272 -0.11298,0.37562 -0.29517,0.45173 -0.11487,0.048 -0.33598,0.0429 -0.51534,-0.0119 -0.20068,-0.0613 -0.53859,-0.23905 -0.7345,-0.38644 -0.0873,-0.0657 -0.1612,-0.11646 -0.1643,-0.11291 -0.003,0.004 -0.0799,0.25158 -0.1706,0.55119 l -0.16497,0.54473 0.11873,0.11435 c 0.30909,0.2977 0.7939,0.53248 1.28208,0.62088 0.23038,0.0417 0.68673,0.0421 0.88317,7.9e-4 z m -0.46649,-7.9931 c 0.26869,-0.0831 0.49298,-0.15554 0.49841,-0.16098 0.005,-0.005 0.0406,-0.13181 0.0781,-0.28085 0.22312,-0.88653 0.59215,-1.43522 1.22267,-1.81792 0.073,-0.0443 -0.0464,-0.0859 -0.23428,-0.0816 -0.78506,0.0178 -1.49471,0.81331 -1.97936,2.21885 -0.0903,0.26182 -0.0938,0.27363 -0.0812,0.27363 0.004,0 0.22704,-0.068 0.49573,-0.1511 z m 1.65287,-0.50735 c 0.32062,-0.0991 0.59658,-0.1847 0.61325,-0.19021 0.0247,-0.008 0.0275,-0.0601 0.0151,-0.27912 -0.0264,-0.46822 -0.11497,-0.89604 -0.18551,-0.89604 -0.0607,0 -0.29485,0.16611 -0.4407,0.31261 -0.22664,0.22765 -0.38831,0.49827 -0.53604,0.89729 -0.0979,0.26442 -0.12032,0.36289 -0.079,0.34711 0.0165,-0.006 0.2923,-0.0925 0.61292,-0.19164 z m 1.38588,-0.43137 c 0.15124,-0.0463 0.27844,-0.0867 0.28267,-0.0897 0.0156,-0.0111 -0.0483,-0.17899 -0.14172,-0.37198 -0.11374,-0.2351 -0.27924,-0.4305 -0.4288,-0.50629 -0.0909,-0.0461 -0.17411,-0.0691 -0.17411,-0.0481 0,0.003 0.0247,0.11461 0.0549,0.24748 0.0365,0.16081 0.0598,0.34672 0.0695,0.55607 0.01,0.21281 0.0223,0.31163 0.0386,0.30564 0.0132,-0.005 0.14777,-0.0468 0.29901,-0.0931 z"
       id="path174"
       inkscape:connector-curvature="0"
       inkscape:export-filename="I:\01-NICOLAS\Dropbox\nicolasjouanno-index\assets\public\images\technologies\shopify.png"
       inkscape:export-xdpi="91"
       inkscape:export-ydpi="91" />
    <path
       style="fill:#00908e;stroke-width:0.02575016;fill-opacity:1"
       d="m 107.85395,265.28865 c -0.72561,-0.13539 -1.28027,-0.65024 -1.47116,-1.36558 -0.0461,-0.17293 -0.0481,-0.37427 -0.0481,-4.9569 0,-4.58554 0.002,-4.78387 0.0482,-4.95691 0.17702,-0.66225 0.68007,-1.16531 1.34233,-1.34233 0.17304,-0.0462 0.37136,-0.0482 4.9569,-0.0482 4.58264,0 4.78398,0.002 4.95691,0.0481 0.6696,0.17869 1.13524,0.64367 1.34428,1.34241 0.0437,0.14622 0.0462,0.4113 0.0462,4.94403 0,5.41731 0.0193,4.92475 -0.21057,5.37333 -0.23831,0.46503 -0.63404,0.7807 -1.17993,0.94123 -0.1449,0.0426 -0.44815,0.0457 -4.87966,0.0499 -3.79423,0.004 -4.76066,-0.002 -4.9054,-0.0291 z m 6.16857,-2.83961 c 0.29741,-0.0644 0.66222,-0.19833 0.86576,-0.31775 0.2146,-0.1259 0.52544,-0.44118 0.61988,-0.62873 0.13308,-0.26428 0.19037,-0.48841 0.20564,-0.80441 0.0391,-0.80825 -0.26485,-1.42696 -0.84306,-1.71641 -0.12423,-0.0622 -0.27352,-0.12113 -0.33175,-0.13096 -0.0582,-0.01 -0.10583,-0.0256 -0.10578,-0.0349 5e-5,-0.009 0.0783,-0.057 0.17381,-0.10579 0.209,-0.10676 0.52755,-0.41479 0.63187,-0.61103 0.10902,-0.20507 0.1728,-0.49328 0.17228,-0.77854 -0.001,-0.76611 -0.33903,-1.26104 -1.04384,-1.53014 -0.40086,-0.15304 -0.39732,-0.1528 -2.45129,-0.16437 l -1.8862,-0.0106 v 3.45369 3.4537 l 1.87332,-0.0102 c 1.77668,-0.01 1.88602,-0.0129 2.11936,-0.0635 z m -2.78331,-0.92073 c -4.6e-4,-0.007 -0.001,-0.49087 -0.002,-1.07507 l -9.2e-4,-1.0622 1.11548,-0.007 c 0.71332,-0.005 1.1742,0.003 1.27837,0.0204 0.39097,0.0666 0.63359,0.23251 0.78263,0.53525 0.0824,0.16729 0.0845,0.18001 0.0845,0.50689 0,0.32272 -0.003,0.34171 -0.0811,0.50656 -0.14896,0.31443 -0.42273,0.5079 -0.79436,0.5614 -0.17888,0.0258 -2.38107,0.0388 -2.38277,0.0141 z m -0.008,-3.96537 0.004,-0.94214 1.1158,0.002 c 1.21547,0.002 1.28592,0.009 1.51238,0.148 0.15027,0.0925 0.27368,0.27515 0.31264,0.46283 0.0454,0.21861 0.0212,0.5846 -0.0489,0.74154 -0.0782,0.17506 -0.26135,0.35444 -0.45144,0.44229 l -0.15734,0.0727 -1.14589,0.008 -1.14588,0.008 z"
       id="path172"
       inkscape:connector-curvature="0"
       inkscape:export-filename="I:\01-NICOLAS\Dropbox\nicolasjouanno-index\assets\public\images\technologies\bootstrap.png"
       inkscape:export-xdpi="91"
       inkscape:export-ydpi="91" />
    <g
       id="g164"
       transform="matrix(0.1025064,0,0,0.1025064,148.07158,216.2094)"
       style="fill:#00908e;fill-opacity:1"
       inkscape:export-filename="I:\01-NICOLAS\Dropbox\nicolasjouanno-index\assets\public\images\technologies\webpack.png"
       inkscape:export-xdpi="91"
       inkscape:export-ydpi="91">
      <path
         style="fill:#00908e;stroke-width:0.35277781;fill-opacity:1"
         d="m -331.43472,-15.652278 c -13.58195,-7.681176 -24.81569,-14.078791 -24.96388,-14.216924 -0.14818,-0.138134 3.94732,-2.682798 9.10112,-5.654813 7.26925,-4.191914 9.51403,-5.333948 10.01039,-5.092793 0.35192,0.170978 7.4086,4.039906 15.68153,8.597622 l 15.04167,8.286755 v 11.02783 c 0,6.0653057 -0.0397,11.0256404 -0.0882,11.0229663 -0.0485,-0.00282 -11.2007,-6.2894674 -24.78264,-13.9706433 z m 29.10417,3.08259 c 0,-8.292628 0.10526,-10.976396 0.44097,-11.242633 0.50194,-0.398068 29.04095,-16.102635 30.32839,-16.689227 0.75009,-0.341764 1.81348,0.17937 9.88685,4.845216 4.9755,2.875496 9.07913,5.386921 9.11918,5.580949 0.0575,0.2785 -49.08896,28.3986131 -49.63319,28.3986131 -0.0782,0 -0.1422,-4.9018123 -0.1422,-10.8929181 z m 0,-32.65432 c 0,-9.010841 0.11906,-16.456933 0.26458,-16.54687 0.14552,-0.08994 0.26458,7.282568 0.26458,16.383347 0,9.100778 -0.11906,16.54687 -0.26458,16.54687 -0.14552,0 -0.26458,-7.372506 -0.26458,-16.383347 z m -57.85556,-17.689108 c 0,-16.943156 0.13273,-29.436324 0.31202,-29.368753 0.17161,0.06467 4.29875,2.419467 9.17143,5.23287 l 8.85941,5.115278 7.1e-4,19.084637 7e-4,19.084641 -8.94477,5.168834 c -4.91946,2.84286 -9.04696,5.168836 -9.17205,5.168836 -0.1251,0 -0.22745,-13.268855 -0.22745,-29.486343 z m 102.30556,24.395192 -8.64306,-5.033667 -0.0912,-19.240343 -0.0912,-19.240342 8.58524,-4.965546 c 4.72189,-2.731047 8.85073,-5.06742 9.17522,-5.191936 0.54854,-0.210499 0.58997,1.844668 0.58997,29.268295 0,23.375897 -0.0915,29.488729 -0.44097,29.465946 -0.24254,-0.0158 -4.33035,-2.293895 -9.08403,-5.062407 z m -79.4926,-7.13848 c -0.32654,-0.326539 -0.29743,-33.631483 0.0294,-33.631483 0.14552,0 0.26458,7.62 0.26458,16.933334 0,9.313334 -0.0132,16.933335 -0.0294,16.933335 -0.0162,0 -0.13524,-0.105833 -0.26459,-0.235186 z m -11.34768,-45.311657 c -4.65667,-2.716805 -8.66581,-5.056576 -8.9092,-5.19949 -0.27211,-0.159783 9.03371,-5.615359 24.16528,-14.166989 13.5343,-7.64893 25.12375,-14.20634 25.75434,-14.57204 l 1.14652,-0.66489 -0.003,10.70637 -0.003,10.70638 -16.53064,9.084026 c -9.09185,4.996215 -16.67082,9.075533 -16.84214,9.065155 -0.17097,-0.01038 -4.12115,-2.241716 -8.77781,-4.958522 z m 62.97083,-4.139586 -16.40416,-9.061363 -0.0934,-10.66638 c -0.0514,-5.86652 -0.0325,-10.66639 0.0419,-10.66639 0.20575,0 50.80932,28.618817 51.13947,28.921899 0.28136,0.258287 -17.33551,10.616407 -17.96259,10.561402 -0.17439,-0.0153 -7.69895,-4.105423 -16.72125,-9.089168 z"
         id="path168"
         inkscape:connector-curvature="0" />
      <path
         style="fill:#00908e;stroke-width:0.35277781;fill-opacity:1"
         d="m -321.90972,-37.252884 -15.16945,-8.372606 -0.0916,-16.65481 c -0.0504,-9.160144 0.0156,-16.65481 0.14678,-16.65481 0.13114,0 7.03832,3.922995 15.34929,8.717764 l 15.11085,8.717764 v 16.329461 c 0,8.981204 -0.0397,16.320545 -0.0882,16.309651 -0.0485,-0.0109 -6.91445,-3.787482 -15.25764,-8.392414 z m 20.01659,-8.155048 0.0917,-16.292705 15.16945,-8.767946 15.16945,-8.767943 0.0917,16.621934 c 0.0504,9.142064 -0.0289,16.731359 -0.17639,16.865093 -0.33482,0.303692 -29.18683,16.154271 -29.90978,16.431695 -0.46479,0.178358 -0.51693,-1.74511 -0.43616,-16.090128 z m -17.78235,-28.869643 c -8.27853,-4.792962 -15.13696,-8.799569 -15.24095,-8.903568 -0.17827,-0.178291 29.41585,-16.621832 30.32936,-16.852067 0.23528,-0.0593 7.2794,3.654892 15.65358,8.253753 12.11146,6.651262 15.1307,8.447639 14.7609,8.782365 -0.55012,0.497925 -29.15046,16.988802 -29.92185,17.252856 -0.29657,0.101519 -7.14527,-3.649342 -15.58104,-8.533339 z"
         id="path166"
         inkscape:connector-curvature="0" />
    </g>
    <path
       style="fill:#00908e;stroke-width:0.07518506;fill-opacity:1"
       d="m 115.76356,116.78882 c 0.1705,-0.0774 0.40485,-0.25966 0.5208,-0.40496 0.13712,-0.17185 0.87364,-1.98142 2.10709,-5.17693 1.66581,-4.31561 1.9292,-4.94605 2.16708,-5.18692 0.14893,-0.15081 0.27078,-0.32583 0.27078,-0.38895 0,-0.49806 -1.8087,-1.40444 -2.80259,-1.40444 -0.4899,0 -0.58074,0.0926 -0.58074,0.59183 0,0.39091 -0.1996,0.95059 -1.92293,5.39189 -1.80262,4.64565 -1.92099,4.98056 -1.89202,5.35306 0.0797,1.02489 1.1808,1.65761 2.13253,1.22542 z m -1.33437,-0.34004 c -0.32653,-0.22188 -0.5169,-0.59599 -0.5169,-1.01576 0,-0.22778 0.51831,-1.65266 1.92401,-5.28918 1.67121,-4.32341 1.91949,-5.01859 1.88956,-5.29078 -0.0415,-0.37752 0.0298,-0.4121 0.64949,-0.31492 0.54129,0.0849 1.10835,0.29758 1.62218,0.60846 0.58934,0.35655 0.62235,0.44475 0.29519,0.78851 -0.23365,0.24551 -0.52144,0.93467 -2.12794,5.09575 -1.02176,2.64652 -1.91627,4.91323 -1.9878,5.03715 -0.32982,0.57137 -1.19115,0.75902 -1.74779,0.38077 z m 1.20936,-0.16515 c 0.11449,-0.0676 0.25984,-0.21143 0.32299,-0.31954 0.0632,-0.10811 0.57815,-1.39765 1.14444,-2.86564 0.56628,-1.46799 1.15833,-2.99894 1.31566,-3.40212 0.15733,-0.40318 0.26935,-0.73306 0.24893,-0.73306 -0.0204,0 -0.20666,0.15243 -0.41387,0.33873 -0.26439,0.23771 -0.50311,0.37345 -0.80049,0.45518 -1.38873,0.38167 -1.36898,0.3563 -2.44849,3.14459 -1.01658,2.62576 -1.03924,2.75168 -0.57799,3.21293 0.2565,0.2565 0.33487,0.29189 0.64627,0.29189 0.19491,0 0.44805,-0.0553 0.56255,-0.12296 z m 0.43108,-1.95511 c -0.0601,-0.0601 0.008,-0.17748 0.10264,-0.17748 0.0389,0 0.0708,0.0508 0.0708,0.11278 0,0.11627 -0.0887,0.14937 -0.17339,0.0647 z m -0.67714,-1.12826 c -0.10643,-0.10642 -0.0462,-0.25218 0.10419,-0.25218 0.10511,0 0.14797,0.0408 0.13158,0.12534 -0.0268,0.13838 -0.15518,0.20743 -0.23577,0.12684 z m 0.41446,-0.49277 c -0.21075,-0.21074 -0.006,-0.56616 0.27515,-0.47701 0.18948,0.0601 0.25628,0.23867 0.158,0.42231 -0.0875,0.16346 -0.29783,0.19002 -0.43315,0.0547 z m 1.16442,-1.01093 c -0.10642,-0.10642 -0.0462,-0.25218 0.1042,-0.25218 0.10511,0 0.14796,0.0408 0.13157,0.12534 -0.0268,0.13838 -0.15518,0.20743 -0.23577,0.12684 z m -0.6835,-0.84191 c -0.026,-0.0421 -0.0106,-0.0992 0.0341,-0.12686 0.1156,-0.0714 0.19018,0.0264 0.0937,0.12291 -0.054,0.054 -0.0961,0.0553 -0.12779,0.004 z m 3.74825,-5.26864 c 0.12067,-0.19525 -0.89662,-0.73361 -1.52741,-0.80832 -0.32501,-0.0385 -0.38606,-0.0264 -0.38606,0.0765 0,0.34599 1.74051,1.0117 1.91347,0.73186 z"
       id="path134"
       inkscape:connector-curvature="0"
       sodipodi:nodetypes="ccscsssscccsscsccsccccccsccssscsssscsccsccssscscccccssc"
       inkscape:export-filename="I:\01-NICOLAS\Dropbox\nicolasjouanno-index\assets\public\images\technologies\jekyll.png"
       inkscape:export-xdpi="91.700981"
       inkscape:export-ydpi="91.700981" />
    <g
       id="g158"
       transform="matrix(0.10799449,0,0,0.10799449,84.515743,166.77525)"
       style="fill:#00908e;fill-opacity:1"
       inkscape:export-filename="I:\01-NICOLAS\Dropbox\nicolasjouanno-index\assets\public\images\technologies\asana.png"
       inkscape:export-xdpi="91"
       inkscape:export-ydpi="91">
      <circle
         r="27.395126"
         cy="-301.55011"
         cx="292.12558"
         id="path144"
         style="opacity:1;fill:#00908e;fill-opacity:1;stroke:none;stroke-width:6.11940336;stroke-miterlimit:4;stroke-dasharray:none;stroke-dashoffset:0;stroke-opacity:1" />
      <g
         id="g152"
         style="fill:#00908e;fill-opacity:1">
        <circle
           r="27.395126"
           cy="-238.74178"
           cx="256.04419"
           id="circle146"
           style="opacity:1;fill:#00908e;fill-opacity:1;stroke:none;stroke-width:6.11940336;stroke-miterlimit:4;stroke-dasharray:none;stroke-dashoffset:0;stroke-opacity:1" />
        <circle
           style="opacity:1;fill:#00908e;fill-opacity:1;stroke:none;stroke-width:6.11940336;stroke-miterlimit:4;stroke-dasharray:none;stroke-dashoffset:0;stroke-opacity:1"
           id="circle148"
           cx="328.20697"
           cy="-238.74178"
           r="27.395126" />
      </g>
    </g>
    <path
       style="fill:#00908e;fill-opacity:1;stroke-width:0.0210335"
       d="m 114.31829,86.836836 c -2.33178,-0.16701 -4.56586,-1.49135 -5.76429,-3.41701 -0.14663,-0.23562 -0.39955,-0.73267 -0.47228,-0.92815 l -0.0372,-0.10002 0.0686,-0.20187 c 0.0657,-0.19353 0.0684,-0.21424 0.0653,-0.5014 -0.002,-0.16474 0.006,-0.32363 0.017,-0.35308 0.0381,-0.10017 0.15769,-0.21172 0.29272,-0.27302 0.22833,-0.10364 0.34408,-0.23865 0.40222,-0.46911 0.0539,-0.21376 0.24767,-0.39045 0.46394,-0.4231 0.21546,-0.0325 0.53079,0.0748 0.72371,0.24632 0.1475,0.13114 0.21914,0.25736 0.36912,0.65036 0.46434,1.21669 0.97415,1.93947 1.72259,2.44219 0.64612,0.434 1.53093,0.67077 2.50671,0.67077 0.97545,0 1.93705,-0.32053 2.70225,-0.90075 0.16898,-0.12813 0.5125,-0.46336 0.66117,-0.64522 0.73983,-0.90496 1.04159,-2.12174 0.80115,-3.23038 -0.24614,-1.13489 -1.10763,-2.11316 -2.17561,-2.47053 -0.30595,-0.10238 -0.55425,-0.12974 -0.89047,-0.0981 -0.472,0.0444 -0.80943,0.13908 -1.17902,0.33094 -0.87764,0.45561 -1.46409,1.29839 -1.60253,2.30297 -0.0359,0.26083 -0.0746,0.36287 -0.18333,0.48379 -0.18591,0.20677 -0.13849,0.19845 -1.1735,0.20597 -0.49745,0.004 -0.95366,6.3e-4 -1.01381,-0.007 -0.13713,-0.0166 -0.23381,-0.0807 -0.29853,-0.19789 -0.0503,-0.0911 -0.0503,-0.0913 -0.0249,-0.39882 0.12603,-1.52744 0.69535,-2.82057 1.67321,-3.80044 0.94155,-0.94348 2.14755,-1.47757 3.58682,-1.58845 1.24944,-0.0963 2.42193,0.2176 3.50208,0.93748 1.31721,0.87787 2.27924,2.28215 2.60821,3.80721 0.21953,1.01771 0.1678,2.1116 -0.14945,3.16026 -0.41494,1.37155 -1.34721,2.64033 -2.55962,3.48354 -0.90151,0.62698 -1.98177,1.05226 -3.0752,1.21065 -0.51076,0.074 -1.13507,0.10251 -1.56699,0.0716 z"
       id="path198"
       inkscape:connector-curvature="0"
       sodipodi:nodetypes="scccsccccsssssscssssssscccssssssss"
       inkscape:export-filename="I:\01-NICOLAS\Dropbox\nicolasjouanno-index\assets\public\images\technologies\convertkit.png"
       inkscape:export-xdpi="91"
       inkscape:export-ydpi="91" />
  </g>
</svg>
