<?xml version="1.0" encoding="UTF-8" standalone="no"?>
<!-- Generator: Adobe Illustrator 19.0.0, SVG Export Plug-In . SVG Version: 6.00 Build 0)  -->

<svg
   xmlns:dc="http://purl.org/dc/elements/1.1/"
   xmlns:cc="http://creativecommons.org/ns#"
   xmlns:rdf="http://www.w3.org/1999/02/22-rdf-syntax-ns#"
   xmlns:svg="http://www.w3.org/2000/svg"
   xmlns="http://www.w3.org/2000/svg"
   xmlns:sodipodi="http://sodipodi.sourceforge.net/DTD/sodipodi-0.dtd"
   xmlns:inkscape="http://www.inkscape.org/namespaces/inkscape"
   version="1.1"
   id="Layer_1"
   x="0px"
   y="0px"
   viewBox="0 0 39 39"
   xml:space="preserve"
   sodipodi:docname="logo_web.svg"
   inkscape:version="0.92.3 (2405546, 2018-03-11)"
   width="39"
   height="39"><metadata
   id="metadata61"><rdf:RDF><cc:Work
       rdf:about=""><dc:format>image/svg+xml</dc:format><dc:type
         rdf:resource="http://purl.org/dc/dcmitype/StillImage" /><dc:title></dc:title></cc:Work></rdf:RDF></metadata><defs
   id="defs59" /><sodipodi:namedview
   pagecolor="#ffffff"
   bordercolor="#666666"
   borderopacity="1"
   objecttolerance="10"
   gridtolerance="10"
   guidetolerance="10"
   inkscape:pageopacity="0"
   inkscape:pageshadow="2"
   inkscape:window-width="1122"
   inkscape:window-height="1002"
   id="namedview57"
   showgrid="false"
   inkscape:zoom="7.375"
   inkscape:cx="23.517382"
   inkscape:cy="18.415076"
   inkscape:window-x="633"
   inkscape:window-y="40"
   inkscape:window-maximized="0"
   inkscape:current-layer="Layer_1"><sodipodi:guide
     position="0,0"
     orientation="0,39"
     id="guide4575"
     inkscape:locked="false" /><sodipodi:guide
     position="39,0"
     orientation="-39,0"
     id="guide4577"
     inkscape:locked="false" /><sodipodi:guide
     position="39,39"
     orientation="0,-39"
     id="guide4579"
     inkscape:locked="false" /><sodipodi:guide
     position="0,39"
     orientation="39,0"
     id="guide4581"
     inkscape:locked="false" /></sodipodi:namedview>
<g
   id="g6"
   style="fill:#00908e;fill-opacity:1"
   transform="matrix(0.07644733,0,0,0.07644733,4.7335636e-4,-0.18860681)">
	<g
   id="g4"
   style="fill:#00908e;fill-opacity:1">
		<path
   d="m 375.035,225.124 c -2.452,-6.204 -9.469,-9.242 -15.675,-6.792 -6.204,2.453 -9.244,9.471 -6.792,15.675 6.139,15.525 9.25,31.933 9.25,48.77 0,73.14 -59.503,132.645 -132.645,132.645 -73.147,0 -132.658,-59.505 -132.658,-132.645 0,-73.14 59.511,-132.645 132.658,-132.645 16.896,0 33.332,3.131 48.852,9.306 6.197,2.469 13.222,-0.56 15.689,-6.757 2.467,-6.199 -0.559,-13.223 -6.757,-15.689 -18.374,-7.312 -37.816,-11.019 -57.783,-11.019 -86.468,0 -156.817,70.341 -156.817,156.803 0,86.462 70.346,156.804 156.816,156.804 86.461,0 156.803,-70.341 156.803,-156.803 0,-19.891 -3.682,-39.287 -10.941,-57.653 z"
   id="path2"
   style="fill:#00908e;fill-opacity:1"
   inkscape:connector-curvature="0" />
	</g>
</g>
<g
   id="g12"
   style="fill:#00908e;fill-opacity:1"
   transform="matrix(0.0761515,0,0,0.0761515,0.13606021,-0.17274954)">
	<g
   id="g10"
   style="fill:#00908e;fill-opacity:1">
		<path
   d="m 449.506,219.607 c -1.835,-6.414 -8.518,-10.121 -14.936,-8.29 -6.414,1.836 -10.125,8.523 -8.29,14.936 5.236,18.302 7.891,37.32 7.891,56.522 0,113.044 -91.962,205.014 -204.999,205.014 -113.044,0 -205.013,-91.969 -205.013,-205.014 0,-113.045 91.968,-205.012 205.013,-205.012 19.246,0 38.296,2.667 56.618,7.928 6.413,1.84 13.103,-1.864 14.943,-8.277 1.841,-6.413 -1.864,-13.103 -8.277,-14.943 C 271.967,56.587 250.674,53.603 229.172,53.603 102.806,53.604 0,156.41 0,282.776 c 0,126.366 102.806,229.173 229.172,229.173 126.358,0 229.158,-102.806 229.158,-229.173 0,-21.452 -2.969,-42.705 -8.824,-63.169 z"
   id="path8"
   style="fill:#00908e;fill-opacity:1"
   inkscape:connector-curvature="0" />
	</g>
</g>
<g
   id="g18"
   style="fill:#00908e;fill-opacity:1"
   transform="matrix(0.07644733,0,0,0.07644733,4.7335636e-4,-0.18860681)">
	<g
   id="g16"
   style="fill:#00908e;fill-opacity:1">
		<path
   d="m 313.278,275.401 c -0.592,-6.645 -6.463,-11.525 -13.105,-10.958 -6.645,0.593 -11.552,6.461 -10.958,13.106 0.153,1.72 0.231,3.479 0.231,5.228 0,33.237 -27.04,60.275 -60.275,60.275 -33.244,0 -60.29,-27.04 -60.29,-60.275 0.002,-33.245 27.047,-60.29 60.291,-60.29 1.857,0 3.675,0.081 5.406,0.24 6.649,0.61 12.525,-4.276 13.138,-10.92 0.612,-6.643 -4.277,-12.524 -10.92,-13.138 -2.464,-0.227 -5.029,-0.342 -7.623,-0.342 -46.565,0 -84.449,37.882 -84.449,84.448 0,46.558 37.884,84.434 84.449,84.434 46.557,0 84.434,-37.876 84.434,-84.434 -0.001,-2.461 -0.111,-4.944 -0.329,-7.374 z"
   id="path14"
   style="fill:#00908e;fill-opacity:1"
   inkscape:connector-curvature="0" />
	</g>
</g>
<g
   id="g24"
   style="fill:#00908e;fill-opacity:1"
   transform="matrix(0.07644733,0,0,0.07644733,4.7335636e-4,-0.18860681)">
	<g
   id="g22"
   style="fill:#00908e;fill-opacity:1">
		<path
   d="M 510.149,81.264 C 506.396,72.202 497.632,66.346 487.823,66.346 H 445.704 V 24.228 c 0,-9.81 -5.856,-18.573 -14.918,-22.326 -9.058,-3.752 -19.391,-1.695 -26.325,5.239 l -70.376,70.377 c -6.842,6.841 -10.609,15.939 -10.609,25.618 v 68.355 l -98.17,98.17 c -4.717,4.717 -4.717,12.366 0,17.084 2.358,2.358 5.45,3.538 8.541,3.538 3.091,0 6.183,-1.18 8.541,-3.538 l 98.171,-98.171 h 68.355 c 9.679,0 18.778,-3.768 25.618,-10.608 l 70.377,-70.379 c 6.936,-6.935 8.992,-17.266 5.24,-26.323 z m -162.514,21.871 c 0.001,-3.225 1.256,-6.257 3.534,-8.534 l 70.376,-70.366 v 49.188 l -73.911,73.911 v -44.199 z m 69.815,57.747 c -2.244,2.244 -5.356,3.533 -8.535,3.533 h -44.196 l 73.909,-73.909 49.192,0.006 z"
   id="path20"
   style="fill:#00908e;fill-opacity:1"
   inkscape:connector-curvature="0" />
	</g>
</g>
<g
   id="g26"
   transform="matrix(0.07644733,0,0,0.07644733,4.7335636e-4,-0.18860681)">
</g>
<g
   id="g28"
   transform="matrix(0.07644733,0,0,0.07644733,4.7335636e-4,-0.18860681)">
</g>
<g
   id="g30"
   transform="matrix(0.07644733,0,0,0.07644733,4.7335636e-4,-0.18860681)">
</g>
<g
   id="g32"
   transform="matrix(0.07644733,0,0,0.07644733,4.7335636e-4,-0.18860681)">
</g>
<g
   id="g34"
   transform="matrix(0.07644733,0,0,0.07644733,4.7335636e-4,-0.18860681)">
</g>
<g
   id="g36"
   transform="matrix(0.07644733,0,0,0.07644733,4.7335636e-4,-0.18860681)">
</g>
<g
   id="g38"
   transform="matrix(0.07644733,0,0,0.07644733,4.7335636e-4,-0.18860681)">
</g>
<g
   id="g40"
   transform="matrix(0.07644733,0,0,0.07644733,4.7335636e-4,-0.18860681)">
</g>
<g
   id="g42"
   transform="matrix(0.07644733,0,0,0.07644733,4.7335636e-4,-0.18860681)">
</g>
<g
   id="g44"
   transform="matrix(0.07644733,0,0,0.07644733,4.7335636e-4,-0.18860681)">
</g>
<g
   id="g46"
   transform="matrix(0.07644733,0,0,0.07644733,4.7335636e-4,-0.18860681)">
</g>
<g
   id="g48"
   transform="matrix(0.07644733,0,0,0.07644733,4.7335636e-4,-0.18860681)">
</g>
<g
   id="g50"
   transform="matrix(0.07644733,0,0,0.07644733,4.7335636e-4,-0.18860681)">
</g>
<g
   id="g52"
   transform="matrix(0.07644733,0,0,0.07644733,4.7335636e-4,-0.18860681)">
</g>
<g
   id="g54"
   transform="matrix(0.07644733,0,0,0.07644733,4.7335636e-4,-0.18860681)">
</g>
</svg>