<?xml version="1.0" encoding="UTF-8" standalone="no"?>
<!-- Generator: Adobe Illustrator 19.0.0, SVG Export Plug-In . SVG Version: 6.00 Build 0)  -->

<svg
   xmlns:dc="http://purl.org/dc/elements/1.1/"
   xmlns:cc="http://creativecommons.org/ns#"
   xmlns:rdf="http://www.w3.org/1999/02/22-rdf-syntax-ns#"
   xmlns:svg="http://www.w3.org/2000/svg"
   xmlns="http://www.w3.org/2000/svg"
   xmlns:sodipodi="http://sodipodi.sourceforge.net/DTD/sodipodi-0.dtd"
   xmlns:inkscape="http://www.inkscape.org/namespaces/inkscape"
   version="1.1"
   id="Layer_1"
   x="0px"
   y="0px"
   viewBox="0 0 512 512"
   style="enable-background:new 0 0 512 512;"
   xml:space="preserve"
   sodipodi:docname="target.svg"
   inkscape:version="0.92.3 (2405546, 2018-03-11)"><metadata
   id="metadata61"><rdf:RDF><cc:Work
       rdf:about=""><dc:format>image/svg+xml</dc:format><dc:type
         rdf:resource="http://purl.org/dc/dcmitype/StillImage" /><dc:title></dc:title></cc:Work></rdf:RDF></metadata><defs
   id="defs59" /><sodipodi:namedview
   pagecolor="#ffffff"
   bordercolor="#666666"
   borderopacity="1"
   objecttolerance="10"
   gridtolerance="10"
   guidetolerance="10"
   inkscape:pageopacity="0"
   inkscape:pageshadow="2"
   inkscape:window-width="1122"
   inkscape:window-height="1002"
   id="namedview57"
   showgrid="false"
   inkscape:zoom="0.4609375"
   inkscape:cx="256"
   inkscape:cy="256"
   inkscape:window-x="633"
   inkscape:window-y="40"
   inkscape:window-maximized="0"
   inkscape:current-layer="Layer_1" />
<g
   id="g6"
   style="fill:#00908e;fill-opacity:1">
	<g
   id="g4"
   style="fill:#00908e;fill-opacity:1">
		<path
   d="M375.035,225.124c-2.452-6.204-9.469-9.242-15.675-6.792c-6.204,2.453-9.244,9.471-6.792,15.675    c6.139,15.525,9.25,31.933,9.25,48.77c0,73.14-59.503,132.645-132.645,132.645c-73.147,0-132.658-59.505-132.658-132.645    s59.511-132.645,132.658-132.645c16.896,0,33.332,3.131,48.852,9.306c6.197,2.469,13.222-0.56,15.689-6.757    c2.467-6.199-0.559-13.223-6.757-15.689c-18.374-7.312-37.816-11.019-57.783-11.019c-86.468,0-156.817,70.341-156.817,156.803    S142.703,439.58,229.173,439.58c86.461,0,156.803-70.341,156.803-156.803C385.976,262.886,382.294,243.49,375.035,225.124z"
   id="path2"
   style="fill:#00908e;fill-opacity:1" />
	</g>
</g>
<g
   id="g12"
   style="fill:#00908e;fill-opacity:1">
	<g
   id="g10"
   style="fill:#00908e;fill-opacity:1">
		<path
   d="M449.506,219.607c-1.835-6.414-8.518-10.121-14.936-8.29c-6.414,1.836-10.125,8.523-8.29,14.936    c5.236,18.302,7.891,37.32,7.891,56.522c0,113.044-91.962,205.014-204.999,205.014c-113.044,0-205.013-91.969-205.013-205.014    S116.127,77.763,229.172,77.763c19.246,0,38.296,2.667,56.618,7.928c6.413,1.84,13.103-1.864,14.943-8.277    c1.841-6.413-1.864-13.103-8.277-14.943c-20.489-5.884-41.782-8.868-63.284-8.868C102.806,53.604,0,156.41,0,282.776    s102.806,229.173,229.172,229.173c126.358,0,229.158-102.806,229.158-229.173C458.33,261.324,455.361,240.071,449.506,219.607z"
   id="path8"
   style="fill:#00908e;fill-opacity:1" />
	</g>
</g>
<g
   id="g18"
   style="fill:#00908e;fill-opacity:1">
	<g
   id="g16"
   style="fill:#00908e;fill-opacity:1">
		<path
   d="M313.278,275.401c-0.592-6.645-6.463-11.525-13.105-10.958c-6.645,0.593-11.552,6.461-10.958,13.106    c0.153,1.72,0.231,3.479,0.231,5.228c0,33.237-27.04,60.275-60.275,60.275c-33.244,0-60.29-27.04-60.29-60.275    c0.002-33.245,27.047-60.29,60.291-60.29c1.857,0,3.675,0.081,5.406,0.24c6.649,0.61,12.525-4.276,13.138-10.92    c0.612-6.643-4.277-12.524-10.92-13.138c-2.464-0.227-5.029-0.342-7.623-0.342c-46.565,0-84.449,37.882-84.449,84.448    c0,46.558,37.884,84.434,84.449,84.434c46.557,0,84.434-37.876,84.434-84.434C313.606,280.314,313.496,277.831,313.278,275.401z"
   id="path14"
   style="fill:#00908e;fill-opacity:1" />
	</g>
</g>
<g
   id="g24"
   style="fill:#00908e;fill-opacity:1">
	<g
   id="g22"
   style="fill:#00908e;fill-opacity:1">
		<path
   d="M510.149,81.264c-3.753-9.062-12.517-14.918-22.326-14.918h-42.119V24.228c0-9.81-5.856-18.573-14.918-22.326    c-9.058-3.752-19.391-1.695-26.325,5.239l-70.376,70.377c-6.842,6.841-10.609,15.939-10.609,25.618v68.355l-98.17,98.17    c-4.717,4.717-4.717,12.366,0,17.084c2.358,2.358,5.45,3.538,8.541,3.538c3.091,0,6.183-1.18,8.541-3.538l98.171-98.171h68.355    c9.679,0,18.778-3.768,25.618-10.608l70.377-70.379C511.845,100.652,513.901,90.321,510.149,81.264z M347.635,103.135    c0.001-3.225,1.256-6.257,3.534-8.534l70.376-70.366v49.188l-73.911,73.911V103.135z M417.45,160.882    c-2.244,2.244-5.356,3.533-8.535,3.533h-44.196l73.909-73.909l49.192,0.006L417.45,160.882z"
   id="path20"
   style="fill:#00908e;fill-opacity:1" />
	</g>
</g>
<g
   id="g26">
</g>
<g
   id="g28">
</g>
<g
   id="g30">
</g>
<g
   id="g32">
</g>
<g
   id="g34">
</g>
<g
   id="g36">
</g>
<g
   id="g38">
</g>
<g
   id="g40">
</g>
<g
   id="g42">
</g>
<g
   id="g44">
</g>
<g
   id="g46">
</g>
<g
   id="g48">
</g>
<g
   id="g50">
</g>
<g
   id="g52">
</g>
<g
   id="g54">
</g>
</svg>